<?xml version="1.0" encoding="utf-8" standalone="no"?>
<!DOCTYPE svg PUBLIC "-//W3C//DTD SVG 1.1//EN"
  "http://www.w3.org/Graphics/SVG/1.1/DTD/svg11.dtd">
<svg xmlns:xlink="http://www.w3.org/1999/xlink" width="144pt" height="144pt" viewBox="0 0 144 144" xmlns="http://www.w3.org/2000/svg" version="1.1">
 <metadata>
  <rdf:RDF xmlns:dc="http://purl.org/dc/elements/1.1/" xmlns:cc="http://creativecommons.org/ns#" xmlns:rdf="http://www.w3.org/1999/02/22-rdf-syntax-ns#">
   <cc:Work>
    <dc:type rdf:resource="http://purl.org/dc/dcmitype/StillImage"/>
    <dc:date>2023-12-08T23:03:07.570436</dc:date>
    <dc:format>image/svg+xml</dc:format>
    <dc:creator>
     <cc:Agent>
      <dc:title>Matplotlib v3.8.2, https://matplotlib.org/</dc:title>
     </cc:Agent>
    </dc:creator>
   </cc:Work>
  </rdf:RDF>
 </metadata>
 <defs>
  <style type="text/css">*{stroke-linejoin: round; stroke-linecap: butt}</style>
 </defs>
 <g id="figure_1">
  <g id="patch_1">
   <path d="M 0 144 
L 144 144 
L 144 0 
L 0 0 
L 0 144 
z
" style="fill: none"/>
  </g>
  <g id="axes_1">
   <g id="patch_2">
    <path d="M 1.44 142.56 
L 142.56 142.56 
L 142.56 1.44 
L 1.44 1.44 
L 1.44 142.56 
z
" style="fill: none"/>
   </g>
   <g id="line2d_1">
    <path d="M 130.45896 100.198416 
L 130.45896 37.65226 
L 130.45896 37.65226 
L 73.4112 4.715721 
L 73.4112 4.715721 
L 16.36344 37.65226 
L 16.36344 37.65226 
L 16.36344 103.52534 
L 16.36344 103.52534 
L 73.4112 136.461879 
L 73.4112 136.461879 
L 130.45896 103.52534 
L 130.45896 97.536878 
L 130.45896 97.536878 
" clip-path="url(#p9fa904522b)" style="fill: none; stroke: #4892ec; stroke-width: 2.4; stroke-linecap: square"/>
   </g>
   <g id="patch_3">
    <path d="M 123.695415 94.255658 
L 123.497913 93.632074 
L 123.287934 93.040463 
L 123.074324 92.471077 
L 122.866974 91.910806 
L 122.674069 91.345068 
L 122.499477 90.760737 
L 122.341055 90.149294 
L 122.190383 89.509289 
L 122.033975 88.847381 
L 121.85562 88.177665 
L 121.639164 87.519472 
L 121.37103 86.89433 
L 121.041882 86.322898 
L 120.647192 85.822687 
L 120.186827 85.406982 
L 119.664016 85.084961 
L 119.084199 84.862602 
L 118.454122 84.743728 
L 117.78138 84.730615 
L 117.0743 84.823854 
L 116.341934 85.021542 
L 115.593847 85.318259 
L 114.839553 85.704424 
L 114.087607 86.166579 
L 113.344632 86.688793 
L 112.614624 87.254994 
L 111.898878 87.851626 
L 111.196666 88.469851 
L 110.506535 89.106596 
L 109.827821 89.764066 
L 109.161879 90.447848 
L 108.512523 91.164169 
L 107.885468 91.917149 
L 107.28685 92.706911 
L 106.721269 93.529116 
L 106.189998 94.376026 
L 105.689985 95.238705 
L 105.214094 96.109619 
L 104.752626 96.984757 
L 104.295785 97.864609 
L 103.836426 98.753683 
L 103.372329 99.65876 
L 102.907335 100.586444 
L 102.451024 101.540792 
L 102.017002 102.52174 
L 101.620258 103.524752 
L 101.274274 104.541761 
L 100.98863 105.563025 
L 100.767631 106.579332 
L 100.610229 107.583897 
L 100.511126 108.573437 
L 100.462692 109.548199 
L 100.457158 110.511008 
L 100.488578 111.465653 
L 100.554164 112.415057 
L 100.654815 113.359663 
L 100.794857 114.296357 
L 100.98117 115.218084 
L 101.221949 116.114165 
L 101.525359 116.971196 
L 101.898301 117.774351 
L 102.345446 118.508882 
L 102.868643 119.161604 
L 103.466761 119.722142 
L 104.135954 120.183753 
L 104.870298 120.543539 
L 105.662676 120.801987 
L 106.505721 120.961888 
L 107.392602 121.026836 
L 108.317473 120.999651 
L 109.275462 120.881146 
L 110.262227 120.669579 
L 111.273236 120.360988 
L 112.303013 119.950355 
L 113.344632 119.433292 
L 114.389635 118.807751 
L 115.428422 118.075278 
L 116.450974 117.2414 
L 117.447632 116.315082 
L 118.409639 115.307439 
L 119.329223 114.230185 
L 120.199185 113.094346 
L 121.012187 111.909696 
L 121.760089 110.685086 
L 122.433735 109.429482 
L 123.023469 108.153261 
L 123.52043 106.869164 
L 123.918354 105.592411 
L 124.215387 104.339756 
L 124.415309 103.12765 
L 124.527663 101.970032 
L 124.566605 100.876407 
L 124.548638 99.850868 
L 124.489796 98.892349 
L 124.403042 97.996059 
L 124.296594 97.155569 
L 124.17368 96.364856 
L 124.033737 95.619575 
L 123.874674 94.917145 
L 123.695415 94.255658 
L 123.695415 94.255658 
z
" clip-path="url(#p77a2f21d46)" style="fill: none; stroke: #4892ec; stroke-width: 0.9; stroke-linejoin: miter"/>
   </g>
   <g id="patch_4">
    <path d="M 125.42862 93.254992 
L 125.198048 92.526991 
L 124.952908 91.836315 
L 124.70353 91.171588 
L 124.46146 90.517502 
L 124.236254 89.857032 
L 124.032426 89.174857 
L 123.847477 88.46103 
L 123.671575 87.713858 
L 123.488978 86.941116 
L 123.280757 86.159257 
L 123.028057 85.390853 
L 122.715025 84.661032 
L 122.330762 83.993916 
L 121.869982 83.409946 
L 121.33253 82.924633 
L 120.722177 82.548691 
L 120.045271 82.289099 
L 119.30969 82.150319 
L 118.524299 82.135011 
L 117.698821 82.243862 
L 116.843822 82.474653 
L 115.970471 82.821053 
L 115.089873 83.271881 
L 114.212016 83.811422 
L 113.344632 84.421079 
L 112.492386 85.082089 
L 111.656791 85.778624 
L 110.836996 86.50037 
L 110.031305 87.243736 
L 109.238943 88.011296 
L 108.46149 88.809576 
L 107.703402 89.645843 
L 106.971349 90.524906 
L 106.272494 91.446911 
L 105.612208 92.406792 
L 104.991977 93.395515 
L 104.408239 94.402647 
L 103.852662 95.419392 
L 103.313922 96.44107 
L 102.780584 97.468249 
L 102.244307 98.506196 
L 101.702499 99.562825 
L 101.159643 100.645847 
L 100.626924 101.759998 
L 100.120227 102.905202 
L 99.657049 104.076166 
L 99.253132 105.26347 
L 98.919657 106.45574 
L 98.661653 107.642225 
L 98.477894 108.815001 
L 98.362196 109.970237 
L 98.305652 111.10822 
L 98.299191 112.232248 
L 98.335873 113.346744 
L 98.412441 114.455123 
L 98.529946 115.557901 
L 98.693438 116.651442 
L 98.910948 117.727509 
L 99.192044 118.773635 
L 99.54626 119.774173 
L 99.98165 120.711814 
L 100.503667 121.56934 
L 101.114472 122.331358 
L 101.812743 122.985757 
L 102.59399 123.524663 
L 103.451298 123.944693 
L 104.376358 124.246418 
L 105.360567 124.433094 
L 106.395953 124.508917 
L 107.475691 124.47718 
L 108.594092 124.338832 
L 109.746088 124.091839 
L 110.926387 123.731575 
L 112.128597 123.252183 
L 113.344632 122.648539 
L 114.564617 121.918254 
L 115.777346 121.063131 
L 116.971121 120.089622 
L 118.134666 119.008195 
L 119.257758 117.831826 
L 120.331324 116.574189 
L 121.346958 115.248157 
L 122.296095 113.865141 
L 123.169231 112.435474 
L 123.955676 110.969623 
L 124.644159 109.479703 
L 125.224334 107.980589 
L 125.688889 106.490048 
L 126.03566 105.027639 
L 126.269058 103.61257 
L 126.400226 102.261112 
L 126.445689 100.984364 
L 126.424713 99.787101 
L 126.356018 98.668082 
L 126.254737 97.62171 
L 126.130465 96.640483 
L 125.986969 95.717368 
L 125.823594 94.847292 
L 125.637896 94.027243 
L 125.42862 93.254992 
L 125.42862 93.254992 
z
" clip-path="url(#p77a2f21d46)" style="fill: none; stroke: #4892ec; stroke-width: 0.9; stroke-linejoin: miter"/>
   </g>
   <g id="patch_5">
    <path d="M 126.871606 92.421884 
L 126.6135 91.60695 
L 126.339087 90.833799 
L 126.05993 90.089694 
L 125.788954 89.357501 
L 125.536855 88.618164 
L 125.308688 87.854528 
L 125.101654 87.055461 
L 124.904747 86.219066 
L 124.700345 85.354049 
L 124.46726 84.478826 
L 124.184384 83.618664 
L 123.833972 82.801693 
L 123.403823 82.054914 
L 122.88802 81.401211 
L 122.286389 80.857945 
L 121.603152 80.437111 
L 120.845414 80.14652 
L 120.021996 79.991168 
L 119.142819 79.974032 
L 118.218768 80.095882 
L 117.261671 80.354231 
L 116.28403 80.741997 
L 115.298277 81.246659 
L 114.315593 81.850629 
L 113.344632 82.533087 
L 112.390617 83.273029 
L 111.455241 84.05274 
L 110.537552 84.860672 
L 109.63565 85.692805 
L 108.74867 86.552023 
L 107.87838 87.445627 
L 107.029766 88.381755 
L 106.210296 89.36579 
L 105.427988 90.397895 
L 104.688856 91.472398 
L 103.994561 92.579187 
L 103.341117 93.706584 
L 102.719197 94.844742 
L 102.116125 95.988421 
L 101.519099 97.138259 
L 100.918784 98.30015 
L 100.312276 99.482954 
L 99.704596 100.695303 
L 99.108264 101.942498 
L 98.541061 103.224454 
L 98.022573 104.535247 
L 97.570423 105.86433 
L 97.197127 107.198973 
L 96.908313 108.52714 
L 96.702611 109.839961 
L 96.573098 111.133147 
L 96.509802 112.40702 
L 96.50257 113.665271 
L 96.543631 114.912853 
L 96.629343 116.153587 
L 96.76088 117.388051 
L 96.943894 118.612175 
L 97.187378 119.816738 
L 97.502041 120.987786 
L 97.898554 122.107801 
L 98.385936 123.157408 
L 98.970289 124.117334 
L 99.654032 124.970347 
L 100.435685 125.702889 
L 101.310223 126.306148 
L 102.269905 126.776335 
L 103.305429 127.11409 
L 104.407165 127.323058 
L 105.56619 127.407935 
L 106.774863 127.372408 
L 108.026816 127.21754 
L 109.316375 126.941052 
L 110.637617 126.537768 
L 111.983387 126.001131 
L 113.344632 125.325403 
L 114.7103 124.507913 
L 116.067844 123.550677 
L 117.404171 122.460919 
L 118.706659 121.250354 
L 119.963863 119.933512 
L 121.165626 118.525697 
L 122.30254 117.04132 
L 123.365016 115.493154 
L 124.342416 113.892766 
L 125.222773 112.251873 
L 125.993469 110.584037 
L 126.642926 108.905909 
L 127.162955 107.237378 
L 127.551134 105.600338 
L 127.812403 104.016292 
L 127.959234 102.503452 
L 128.010126 101.074244 
L 127.986645 99.734012 
L 127.909747 98.481367 
L 127.796372 97.310045 
L 127.65726 96.211647 
L 127.496629 95.1783 
L 127.313745 94.204326 
L 127.105872 93.286351 
L 126.871606 92.421884 
L 126.871606 92.421884 
z
" clip-path="url(#p77a2f21d46)" style="fill: none; stroke: #4892ec; stroke-width: 0.9; stroke-linejoin: miter"/>
   </g>
   <g id="patch_6">
    <path d="M 128.072968 91.728277 
L 127.791939 90.840967 
L 127.493155 89.99915 
L 127.189206 89.18896 
L 126.894164 88.391739 
L 126.619675 87.586739 
L 126.371244 86.755283 
L 126.145823 85.885249 
L 125.931428 84.974572 
L 125.708873 84.032731 
L 125.455087 83.079777 
L 125.147088 82.143223 
L 124.765555 81.253695 
L 124.297203 80.440592 
L 123.735591 79.728833 
L 123.080528 79.137317 
L 122.33661 78.679108 
L 121.511577 78.362709 
L 120.615028 78.19356 
L 119.65777 78.174902 
L 118.651652 78.307573 
L 117.609553 78.588868 
L 116.545085 79.011071 
L 115.471785 79.560554 
L 114.401826 80.218164 
L 113.344632 80.961233 
L 112.305889 81.766891 
L 111.287439 82.61585 
L 110.288249 83.495536 
L 109.306247 84.401573 
L 108.340492 85.3371 
L 107.392909 86.310068 
L 106.468927 87.329335 
L 105.576678 88.400764 
L 104.724892 89.524532 
L 103.920116 90.694465 
L 103.16416 91.89955 
L 102.452681 93.127074 
L 101.775527 94.366315 
L 101.118895 95.611566 
L 100.468846 96.863524 
L 99.815215 98.128606 
L 99.154842 99.416458 
L 98.493193 100.736478 
L 97.843899 102.094439 
L 97.226321 103.490249 
L 96.661785 104.917456 
L 96.169478 106.364579 
L 95.763029 107.817755 
L 95.448565 109.263878 
L 95.224594 110.693294 
L 95.083579 112.101331 
L 95.014661 113.48834 
L 95.006787 114.85834 
L 95.051495 116.216722 
L 95.144819 117.567649 
L 95.288038 118.911748 
L 95.487306 120.244589 
L 95.752414 121.556133 
L 96.095023 122.831184 
L 96.526751 124.05067 
L 97.057419 125.193495 
L 97.693669 126.238675 
L 98.438137 127.167445 
L 99.289211 127.965047 
L 100.241419 128.621882 
L 101.286332 129.133828 
L 102.413823 129.501579 
L 103.613408 129.729106 
L 104.875369 129.821521 
L 106.191386 129.782839 
L 107.554528 129.614217 
L 108.958616 129.313174 
L 110.397201 128.874073 
L 111.862491 128.289776 
L 113.344632 127.554035 
L 114.831588 126.663942 
L 116.309699 125.621691 
L 117.764709 124.435149 
L 119.182873 123.117072 
L 120.551732 121.683277 
L 121.860227 120.150431 
L 123.098113 118.534223 
L 124.25495 116.848561 
L 125.319155 115.106038 
L 126.277698 113.319414 
L 127.116842 111.503454 
L 127.823978 109.676287 
L 128.390192 107.85957 
L 128.812847 106.077141 
L 129.09732 104.352412 
L 129.257191 102.705213 
L 129.312603 101.149073 
L 129.287036 99.689812 
L 129.203309 98.325917 
L 129.079865 97.050567 
L 128.928398 95.854618 
L 128.753501 94.729497 
L 128.554374 93.669021 
L 128.32804 92.66952 
L 128.072968 91.728277 
L 128.072968 91.728277 
z
" clip-path="url(#p77a2f21d46)" style="fill: none; stroke: #4892ec; stroke-width: 0.9; stroke-linejoin: miter"/>
   </g>
   <g id="patch_7">
    <path d="M 129.073166 91.150812 
L 128.773053 90.203245 
L 128.453978 89.304261 
L 128.129388 88.439051 
L 127.814309 87.587691 
L 127.521181 86.728024 
L 127.255879 85.840104 
L 127.015149 84.910986 
L 126.786195 83.938465 
L 126.548526 82.932663 
L 126.277505 81.914995 
L 125.94859 80.914839 
L 125.541148 79.964903 
L 125.04099 79.096584 
L 124.441239 78.336488 
L 123.74169 77.704803 
L 122.947254 77.215477 
L 122.066192 76.877592 
L 121.108759 76.696956 
L 120.086494 76.677031 
L 119.012051 76.818712 
L 117.899183 77.119109 
L 116.762427 77.569984 
L 115.616239 78.156782 
L 114.47362 78.85905 
L 113.344632 79.652581 
L 112.235348 80.512951 
L 111.147736 81.419563 
L 110.08069 82.358987 
L 109.032001 83.326553 
L 108.000662 84.325612 
L 106.988729 85.364653 
L 106.002 86.453139 
L 105.049158 87.597329 
L 104.139528 88.797412 
L 103.280099 90.046795 
L 102.472806 91.333717 
L 101.713011 92.644601 
L 100.989871 93.967998 
L 100.288648 95.297815 
L 99.594454 96.634793 
L 98.896435 97.985786 
L 98.191216 99.361096 
L 97.484635 100.770758 
L 96.791247 102.220939 
L 96.13173 103.711538 
L 95.528856 105.235666 
L 95.003117 106.781062 
L 94.569067 108.332923 
L 94.233247 109.877253 
L 93.994066 111.40374 
L 93.843475 112.907396 
L 93.769877 114.388596 
L 93.761467 115.851632 
L 93.809212 117.302263 
L 93.908874 118.74493 
L 94.061818 120.180307 
L 94.274619 121.603661 
L 94.55773 123.004271 
L 94.923606 124.365911 
L 95.384653 125.668212 
L 95.951357 126.888647 
L 96.630816 128.004804 
L 97.42584 128.996647 
L 98.334711 129.848413 
L 99.351583 130.549854 
L 100.467456 131.096566 
L 101.671515 131.489291 
L 102.952563 131.73227 
L 104.300223 131.830961 
L 105.705611 131.789652 
L 107.161323 131.609578 
L 108.660763 131.288092 
L 110.197041 130.819172 
L 111.76184 130.195195 
L 113.344632 129.40949 
L 114.932566 128.458951 
L 116.511056 127.345921 
L 118.064875 126.078801 
L 119.579346 124.671214 
L 121.041165 123.14005 
L 122.438519 121.503109 
L 123.76047 119.777144 
L 124.995867 117.977009 
L 126.132342 116.116152 
L 127.15598 114.208199 
L 128.05211 112.268917 
L 128.807268 110.317668 
L 129.411933 108.377578 
L 129.86329 106.474105 
L 130.167081 104.63225 
L 130.33781 102.87319 
L 130.396984 101.211373 
L 130.369681 99.653014 
L 130.280269 98.196497 
L 130.148441 96.834538 
L 129.986689 95.557372 
L 129.799914 94.355844 
L 129.587265 93.223352 
L 129.34556 92.155975 
L 129.073166 91.150812 
L 129.073166 91.150812 
z
" clip-path="url(#p77a2f21d46)" style="fill: none; stroke: #4892ec; stroke-width: 0.9; stroke-linejoin: miter"/>
   </g>
   <g id="patch_8">
    <path d="M 129.905884 90.670042 
L 129.589882 89.672308 
L 129.253915 88.725729 
L 128.912139 87.814712 
L 128.58038 86.918278 
L 128.271732 86.013097 
L 127.992384 85.078168 
L 127.738909 84.09986 
L 127.497833 83.075851 
L 127.247581 82.016799 
L 126.962213 80.945252 
L 126.615883 79.892144 
L 126.18687 78.891916 
L 125.660232 77.977625 
L 125.028728 77.177288 
L 124.292143 76.512159 
L 123.455647 75.996927 
L 122.527939 75.641152 
L 121.519816 75.450953 
L 120.443429 75.429973 
L 119.312102 75.579155 
L 118.140315 75.895456 
L 116.943376 76.370202 
L 115.736505 76.988067 
L 114.533392 77.727516 
L 113.344632 78.563058 
L 112.176619 79.468979 
L 111.031425 80.42359 
L 109.907887 81.412751 
L 108.803676 82.431542 
L 107.717735 83.483494 
L 106.652227 84.577546 
L 105.613258 85.723659 
L 104.60997 86.928426 
L 103.65218 88.192046 
L 102.747251 89.507574 
L 101.897217 90.86263 
L 101.097197 92.242917 
L 100.335771 93.636379 
L 99.597423 95.0366 
L 98.866476 96.444363 
L 98.131502 97.866881 
L 97.388947 99.315004 
L 96.644957 100.799298 
L 95.914859 102.326256 
L 95.220424 103.895772 
L 94.585633 105.500592 
L 94.03206 107.127807 
L 93.575029 108.761828 
L 93.22143 110.387919 
L 92.969587 111.995224 
L 92.811022 113.578488 
L 92.733528 115.138108 
L 92.724673 116.678602 
L 92.774945 118.206033 
L 92.879883 119.725079 
L 93.040925 121.23645 
L 93.264992 122.735161 
L 93.563093 124.209923 
L 93.948338 125.643653 
L 94.433795 127.014902 
L 95.030503 128.29995 
L 95.745934 129.4752 
L 96.583049 130.519555 
L 97.540038 131.416416 
L 98.610747 132.154994 
L 99.785698 132.73065 
L 101.053503 133.144167 
L 102.402374 133.40001 
L 103.821383 133.503926 
L 105.301177 133.46043 
L 106.833959 133.270823 
L 108.412784 132.932316 
L 110.030398 132.438569 
L 111.678042 131.781557 
L 113.344632 130.954255 
L 115.016637 129.953391 
L 116.678697 128.781434 
L 118.314779 127.447229 
L 119.909432 125.965119 
L 121.448643 124.352891 
L 122.919978 122.629285 
L 124.311917 120.811942 
L 125.612721 118.916502 
L 126.809364 116.957126 
L 127.887196 114.948159 
L 128.830771 112.906206 
L 129.625908 110.851651 
L 130.262586 108.808847 
L 130.73784 106.804598 
L 131.057715 104.865229 
L 131.237482 103.013039 
L 131.29979 101.26324 
L 131.271041 99.622377 
L 131.176895 98.088747 
L 131.038088 96.654682 
L 130.867772 95.309899 
L 130.671108 94.044759 
L 130.447201 92.852309 
L 130.192699 91.728421 
L 129.905884 90.670042 
L 129.905884 90.670042 
z
" clip-path="url(#p77a2f21d46)" style="fill: none; stroke: #4892ec; stroke-width: 0.9; stroke-linejoin: miter"/>
   </g>
   <g id="patch_9">
    <path d="M 82.399999 91.748346 
L 82.360253 91.535605 
L 82.306961 91.336584 
L 82.242243 91.150801 
L 82.167699 90.9777 
L 82.084392 90.816857 
L 81.992982 90.668033 
L 81.893909 90.531118 
L 81.787514 90.406067 
L 81.674046 90.292934 
L 81.553574 90.192034 
L 81.425886 90.104206 
L 81.290468 90.031055 
L 81.146638 89.975009 
L 80.993844 89.939075 
L 80.832033 89.926266 
L 80.661984 89.938801 
L 80.485444 89.977294 
L 80.304995 90.040206 
L 80.12365 90.123777 
L 79.944275 90.222546 
L 79.769032 90.330372 
L 79.598997 90.441706 
L 79.434117 90.552763 
L 79.273503 90.662261 
L 79.115976 90.771487 
L 78.960672 90.883671 
L 78.807496 91.002851 
L 78.657263 91.132556 
L 78.511457 91.274716 
L 78.371705 91.429091 
L 78.239142 91.593383 
L 78.113894 91.763957 
L 77.994892 91.936919 
L 77.880083 92.109192 
L 77.767011 92.279281 
L 77.653578 92.447488 
L 77.538747 92.615582 
L 77.422964 92.786045 
L 77.308154 92.9612 
L 77.197293 93.142472 
L 77.093693 93.330024 
L 77.00021 93.522823 
L 76.918622 93.719065 
L 76.849341 93.916764 
L 76.791523 94.114302 
L 76.743509 94.310741 
L 76.703437 94.505846 
L 76.669825 94.699837 
L 76.641963 94.893018 
L 76.620026 95.085415 
L 76.604925 95.276555 
L 76.597991 95.465442 
L 76.600614 95.650684 
L 76.613963 95.830704 
L 76.638843 96.003934 
L 76.675683 96.168931 
L 76.724609 96.324409 
L 76.785525 96.469239 
L 76.858144 96.602466 
L 76.941969 96.7234 
L 77.03625 96.831769 
L 77.139975 96.927871 
L 77.251945 97.012646 
L 77.370951 97.087561 
L 77.496006 97.154301 
L 77.626563 97.214304 
L 77.762639 97.268267 
L 77.904774 97.315789 
L 78.053834 97.355278 
L 78.210704 97.384193 
L 78.375982 97.399562 
L 78.549765 97.398638 
L 78.731618 97.37947 
L 78.920694 97.341216 
L 79.115976 97.284089 
L 79.316503 97.208956 
L 79.521482 97.116742 
L 79.730221 97.007861 
L 79.941889 96.881883 
L 80.155204 96.737591 
L 80.368185 96.573408 
L 80.578099 96.38807 
L 80.781684 96.181321 
L 80.975623 95.95437 
L 81.157145 95.709956 
L 81.324564 95.451981 
L 81.477587 95.184812 
L 81.617246 94.912486 
L 81.745455 94.638061 
L 81.864311 94.363311 
L 81.975328 94.08885 
L 82.078847 93.8146 
L 82.173787 93.540444 
L 82.257832 93.266815 
L 82.327968 92.995024 
L 82.381222 92.727256 
L 82.415376 92.46623 
L 82.429444 92.21469 
L 82.423807 91.974907 
L 82.399999 91.748346 
L 82.399999 91.748346 
z
" clip-path="url(#p77a2f21d46)" style="fill: none; stroke: #4892ec; stroke-width: 0.9; stroke-linejoin: miter"/>
   </g>
   <g id="patch_10">
    <path d="M 85.149495 90.160924 
L 85.076471 89.770068 
L 84.978563 89.404421 
L 84.859661 89.063093 
L 84.722706 88.745066 
L 84.56965 88.449561 
L 84.401708 88.176137 
L 84.219689 87.92459 
L 84.024217 87.694843 
L 83.815749 87.486992 
L 83.594414 87.301614 
L 83.359821 87.140254 
L 83.111026 87.005859 
L 82.846778 86.902888 
L 82.566059 86.836869 
L 82.268775 86.813337 
L 81.956355 86.836367 
L 81.632009 86.907088 
L 81.300483 87.022671 
L 80.967308 87.17621 
L 80.637756 87.357672 
L 80.315793 87.555775 
L 80.003399 87.76032 
L 79.700476 87.964358 
L 79.405391 88.165531 
L 79.115976 88.366205 
L 78.830645 88.572314 
L 78.549226 88.791275 
L 78.273213 89.029574 
L 78.005333 89.290755 
L 77.748576 89.574377 
L 77.505026 89.87622 
L 77.274917 90.189606 
L 77.056282 90.507376 
L 76.845351 90.823883 
L 76.637612 91.136375 
L 76.429209 91.445412 
L 76.218238 91.754238 
L 76.005517 92.06742 
L 75.794583 92.38922 
L 75.590906 92.722259 
L 75.400568 93.066836 
L 75.228819 93.421054 
L 75.078923 93.781595 
L 74.951638 94.144814 
L 74.845412 94.507738 
L 74.757198 94.868643 
L 74.683577 95.227096 
L 74.621825 95.583504 
L 74.570636 95.938423 
L 74.530332 96.2919 
L 74.502588 96.64307 
L 74.489848 96.990099 
L 74.494667 97.330432 
L 74.519193 97.661171 
L 74.564903 97.979435 
L 74.632586 98.282572 
L 74.722476 98.568222 
L 74.834392 98.834309 
L 74.96781 99.079078 
L 75.121817 99.301262 
L 75.295034 99.50036 
L 75.4856 99.676923 
L 75.691316 99.832675 
L 75.909958 99.970312 
L 76.139712 100.092929 
L 76.379575 100.203167 
L 76.629579 100.30231 
L 76.890715 100.38962 
L 77.164573 100.462171 
L 77.45278 100.515293 
L 77.756433 100.543531 
L 78.075715 100.541833 
L 78.409821 100.506616 
L 78.757198 100.436335 
L 79.115976 100.331379 
L 79.48439 100.193342 
L 79.860985 100.023924 
L 80.244487 99.823883 
L 80.633371 99.592433 
L 81.025282 99.327335 
L 81.416577 99.025692 
L 81.802237 98.685183 
L 82.176271 98.305336 
L 82.532583 97.888373 
L 82.86608 97.439328 
L 83.173668 96.965367 
L 83.454808 96.474515 
L 83.711394 95.974189 
L 83.946944 95.470006 
L 84.16531 94.965227 
L 84.369275 94.460977 
L 84.559463 93.957115 
L 84.733891 93.453428 
L 84.888301 92.950706 
L 85.017156 92.451364 
L 85.114997 91.959411 
L 85.177746 91.479845 
L 85.203592 91.017707 
L 85.193235 90.577169 
L 85.149495 90.160924 
L 85.149495 90.160924 
z
" clip-path="url(#p77a2f21d46)" style="fill: none; stroke: #4892ec; stroke-width: 0.9; stroke-linejoin: miter"/>
   </g>
   <g id="patch_11">
    <path d="M 87.438597 88.83931 
L 87.337868 88.300165 
L 87.202813 87.795792 
L 87.0388 87.324966 
L 86.849884 86.88628 
L 86.63876 86.478661 
L 86.407101 86.1015 
L 86.156024 85.754518 
L 85.88639 85.437605 
L 85.59883 85.150895 
L 85.293521 84.895186 
L 84.969925 84.672607 
L 84.626737 84.487222 
L 84.262234 84.345184 
L 83.875012 84.254118 
L 83.464939 84.221657 
L 83.033987 84.253425 
L 82.586586 84.350977 
L 82.129279 84.510413 
L 81.669699 84.722204 
L 81.215115 84.972512 
L 80.771 85.245774 
L 80.340084 85.527924 
L 79.922233 85.809373 
L 79.515194 86.086871 
L 79.115976 86.36368 
L 78.722392 86.647986 
L 78.334203 86.95002 
L 77.953471 87.278729 
L 77.583958 87.639002 
L 77.229788 88.03023 
L 76.893836 88.446591 
L 76.576424 88.878874 
L 76.274839 89.317206 
L 75.983881 89.753794 
L 75.697327 90.184846 
L 75.409856 90.61113 
L 75.118843 91.037124 
L 74.825417 91.469126 
L 74.534455 91.913016 
L 74.253503 92.372409 
L 73.990952 92.847718 
L 73.754042 93.336325 
L 73.547276 93.833655 
L 73.371699 94.334679 
L 73.22517 94.835294 
L 73.103489 95.333126 
L 73.001936 95.827575 
L 72.916755 96.319203 
L 72.846146 96.808778 
L 72.790551 97.296364 
L 72.752281 97.780766 
L 72.734707 98.259457 
L 72.741354 98.728911 
L 72.775185 99.185132 
L 72.838237 99.624145 
L 72.9316 100.042292 
L 73.055593 100.436316 
L 73.209971 100.803355 
L 73.394007 101.14099 
L 73.606443 101.44747 
L 73.845378 101.722105 
L 74.108245 101.965656 
L 74.392008 102.180499 
L 74.693603 102.370355 
L 75.010524 102.539492 
L 75.341392 102.691555 
L 75.686246 102.828313 
L 76.046457 102.948747 
L 76.424216 103.048824 
L 76.821768 103.122101 
L 77.240626 103.161051 
L 77.681042 103.158709 
L 78.141907 103.110131 
L 78.621078 103.013186 
L 79.115976 102.868411 
L 79.624166 102.678003 
L 80.14364 102.444307 
L 80.672642 102.168371 
L 81.209067 101.849109 
L 81.749667 101.483434 
L 82.289419 101.067348 
L 82.821398 100.597651 
L 83.337339 100.073692 
L 83.828835 99.498534 
L 84.28886 98.879122 
L 84.713146 98.225342 
L 85.10095 97.548262 
L 85.454883 96.858113 
L 85.779801 96.162644 
L 86.081014 95.466354 
L 86.362363 94.770792 
L 86.624707 94.075767 
L 86.865313 93.380982 
L 87.078306 92.687529 
L 87.256048 91.998737 
L 87.39101 91.320139 
L 87.477566 90.658626 
L 87.513218 90.021155 
L 87.498932 89.413478 
L 87.438597 88.83931 
L 87.438597 88.83931 
z
" clip-path="url(#p77a2f21d46)" style="fill: none; stroke: #4892ec; stroke-width: 0.9; stroke-linejoin: miter"/>
   </g>
   <g id="patch_12">
    <path d="M 89.344396 87.738997 
L 89.220601 87.076393 
L 89.05462 86.456523 
L 88.853049 85.877882 
L 88.620874 85.338742 
L 88.361404 84.837782 
L 88.076698 84.374255 
L 87.768126 83.947817 
L 87.436749 83.558334 
L 87.083341 83.205971 
L 86.708119 82.891707 
L 86.310422 82.618159 
L 85.888648 82.390322 
L 85.440677 82.21576 
L 84.964784 82.10384 
L 84.460809 82.063946 
L 83.931174 82.102988 
L 83.381322 82.222879 
L 82.819296 82.418824 
L 82.254477 82.679113 
L 81.695798 82.98674 
L 81.149984 83.322576 
L 80.620393 83.669335 
L 80.106858 84.015233 
L 79.606611 84.356276 
L 79.115976 84.696471 
L 78.632265 85.045881 
L 78.155185 85.417077 
L 77.687268 85.821058 
L 77.233141 86.26383 
L 76.79787 86.744645 
L 76.384987 87.256348 
L 75.994891 87.78762 
L 75.624246 88.326326 
L 75.266662 88.862889 
L 74.914489 89.392647 
L 74.561191 89.916546 
L 74.203539 90.440089 
L 73.842921 90.971014 
L 73.485332 91.516551 
L 73.140044 92.081141 
L 72.817372 92.665291 
L 72.526211 93.265784 
L 72.272098 93.876997 
L 72.056315 94.492751 
L 71.876234 95.108003 
L 71.726688 95.719833 
L 71.60188 96.327506 
L 71.497194 96.931712 
L 71.410416 97.533395 
L 71.34209 98.132633 
L 71.295057 98.727958 
L 71.273459 99.316265 
L 71.281628 99.893219 
L 71.323206 100.45391 
L 71.400696 100.993453 
L 71.515438 101.507351 
L 71.667824 101.991604 
L 71.857553 102.442691 
L 72.083732 102.857641 
L 72.344814 103.234302 
L 72.638462 103.571826 
L 72.961523 103.871147 
L 73.310266 104.135188 
L 73.680922 104.368519 
L 74.070416 104.576386 
L 74.477049 104.76327 
L 74.900871 104.931344 
L 75.343567 105.079357 
L 75.807829 105.20235 
L 76.296417 105.292407 
L 76.811189 105.340277 
L 77.352456 105.337398 
L 77.918855 105.277696 
L 78.507751 105.158551 
L 79.115976 104.980624 
L 79.740536 104.746614 
L 80.378964 104.459405 
L 81.029103 104.120282 
L 81.688364 103.727912 
L 82.352757 103.278502 
L 83.016107 102.767136 
L 83.669903 102.189883 
L 84.30399 101.545942 
L 84.908034 100.839079 
L 85.4734 100.077828 
L 85.994844 99.274338 
L 86.471451 98.442213 
L 86.906431 97.594027 
L 87.305751 96.739303 
L 87.67594 95.883568 
L 88.021715 95.02873 
L 88.344134 94.174551 
L 88.639835 93.320667 
L 88.901601 92.46842 
L 89.120046 91.621902 
L 89.285912 90.787911 
L 89.392289 89.974918 
L 89.436104 89.191473 
L 89.418547 88.444643 
L 89.344396 87.738997 
L 89.344396 87.738997 
z
" clip-path="url(#p77a2f21d46)" style="fill: none; stroke: #4892ec; stroke-width: 0.9; stroke-linejoin: miter"/>
   </g>
   <g id="patch_13">
    <path d="M 90.931075 86.822927 
L 90.788076 86.057537 
L 90.596348 85.34151 
L 90.363508 84.673108 
L 90.095317 84.050333 
L 89.795597 83.471663 
L 89.466726 82.936231 
L 89.110287 82.443642 
L 88.727505 81.993741 
L 88.319275 81.586717 
L 87.885846 81.223704 
L 87.426457 80.907721 
L 86.939255 80.644542 
L 86.421794 80.442901 
L 85.872078 80.313619 
L 85.289924 80.267537 
L 84.678129 80.312635 
L 84.042981 80.451125 
L 83.393772 80.677465 
L 82.741335 80.978131 
L 82.095991 81.333479 
L 81.465509 81.721411 
L 80.853765 82.121961 
L 80.260569 82.521516 
L 79.68272 82.915463 
L 79.115976 83.308431 
L 78.557229 83.712043 
L 78.006142 84.140821 
L 77.465641 84.607469 
L 76.941067 85.118926 
L 76.438275 85.674327 
L 75.961344 86.265408 
L 75.510734 86.879093 
L 75.082593 87.501365 
L 74.669539 88.121162 
L 74.262736 88.733099 
L 73.854632 89.338268 
L 73.441499 89.943025 
L 73.024941 90.55631 
L 72.611881 91.186473 
L 72.21303 91.838645 
L 71.840303 92.513411 
L 71.503977 93.207055 
L 71.210445 93.913082 
L 70.961189 94.624355 
L 70.753172 95.335047 
L 70.580428 96.041787 
L 70.43626 96.743725 
L 70.315334 97.441658 
L 70.215094 98.136676 
L 70.13617 98.828871 
L 70.081841 99.516546 
L 70.056892 100.196114 
L 70.066328 100.862568 
L 70.114356 101.510236 
L 70.203867 102.133475 
L 70.336408 102.727091 
L 70.512433 103.286463 
L 70.731594 103.807526 
L 70.992858 104.286844 
L 71.294441 104.721934 
L 71.633641 105.111817 
L 72.006817 105.45757 
L 72.409658 105.76257 
L 72.837812 106.032096 
L 73.287726 106.272209 
L 73.757437 106.488083 
L 74.247005 106.68223 
L 74.758374 106.853203 
L 75.294655 106.995275 
L 75.859034 107.099302 
L 76.45366 107.154598 
L 77.078891 107.151273 
L 77.733152 107.08231 
L 78.413401 106.944682 
L 79.115976 106.739154 
L 79.837421 106.468844 
L 80.574885 106.137081 
L 81.325876 105.745352 
L 82.087405 105.292116 
L 82.854861 104.772991 
L 83.621113 104.1823 
L 84.376329 103.515501 
L 85.108778 102.771668 
L 85.806524 101.955153 
L 86.459592 101.075814 
L 87.061925 100.147683 
L 87.612465 99.186476 
L 88.114922 98.206715 
L 88.576186 97.219402 
L 89.003801 96.230922 
L 89.403214 95.243477 
L 89.775647 94.256794 
L 90.11722 93.270452 
L 90.419592 92.286 
L 90.671922 91.308166 
L 90.863519 90.344803 
L 90.986397 89.405695 
L 91.03701 88.500718 
L 91.016728 87.638036 
L 90.931075 86.822927 
L 90.931075 86.822927 
z
" clip-path="url(#p77a2f21d46)" style="fill: none; stroke: #4892ec; stroke-width: 0.9; stroke-linejoin: miter"/>
   </g>
   <g id="patch_14">
    <path d="M 92.25207 86.06025 
L 92.093083 85.209286 
L 91.879918 84.413203 
L 91.621046 83.670069 
L 91.322869 82.977665 
L 90.989639 82.334296 
L 90.623998 81.739 
L 90.227708 81.191337 
L 89.802128 80.691134 
L 89.348255 80.238603 
L 88.866367 79.835002 
L 88.355615 79.483691 
L 87.813942 79.191087 
L 87.238625 78.966901 
L 86.627449 78.823165 
L 85.980206 78.771931 
L 85.300009 78.822072 
L 84.593848 78.976045 
L 83.872053 79.227691 
L 83.146671 79.561973 
L 82.429174 79.957051 
L 81.7282 80.388356 
L 81.04806 80.83369 
L 80.388541 81.277918 
L 79.746085 81.71591 
L 79.115976 82.152814 
L 78.494758 82.601552 
L 77.882057 83.07827 
L 77.281124 83.597092 
L 76.697899 84.165732 
L 76.138893 84.78323 
L 75.608638 85.440398 
L 75.107648 86.122696 
L 74.631638 86.814542 
L 74.172403 87.503636 
L 73.720116 88.18399 
L 73.266384 88.856821 
L 72.807061 89.529193 
L 72.343929 90.211047 
L 71.884686 90.911665 
L 71.441242 91.636753 
L 71.026842 92.386962 
L 70.652912 93.15816 
L 70.326562 93.943125 
L 70.049437 94.733922 
L 69.818163 95.524073 
L 69.626106 96.309831 
L 69.465818 97.09025 
L 69.331373 97.866216 
L 69.219925 98.638941 
L 69.132177 99.408527 
L 69.071773 100.173088 
L 69.044036 100.928635 
L 69.054527 101.669603 
L 69.107924 102.389684 
L 69.207443 103.082604 
L 69.354803 103.74259 
L 69.550509 104.364503 
L 69.794172 104.943823 
L 70.084648 105.476732 
L 70.419949 105.960468 
L 70.797074 106.393941 
L 71.211972 106.778352 
L 71.659854 107.117452 
L 72.135878 107.417113 
L 72.636095 107.684072 
L 73.158322 107.924082 
L 73.702627 108.139935 
L 74.271169 108.330024 
L 74.86741 108.487981 
L 75.49489 108.603639 
L 76.155998 108.665116 
L 76.851134 108.66142 
L 77.578545 108.584746 
L 78.334849 108.431731 
L 79.115976 108.203224 
L 79.918082 107.902692 
L 80.737999 107.533836 
L 81.572955 107.098309 
L 82.419628 106.594399 
L 83.272889 106.017233 
L 84.124812 105.360499 
L 84.964467 104.619148 
L 85.778807 103.792151 
L 86.554565 102.884345 
L 87.28065 101.90669 
L 87.950327 100.87479 
L 88.562421 99.806113 
L 89.121055 98.71681 
L 89.633891 97.619109 
L 90.109315 96.520112 
L 90.553385 95.422265 
L 90.967459 94.325266 
L 91.347221 93.228645 
L 91.6834 92.134125 
L 91.963942 91.046964 
L 92.176961 89.975892 
L 92.313577 88.931787 
L 92.369848 87.925628 
L 92.3473 86.966493 
L 92.25207 86.06025 
L 92.25207 86.06025 
z
" clip-path="url(#p77a2f21d46)" style="fill: none; stroke: #4892ec; stroke-width: 0.9; stroke-linejoin: miter"/>
   </g>
   <g id="patch_15">
    <path d="M 122.073228 42.493765 
L 122.047531 41.876357 
L 121.984692 41.284533 
L 121.880581 40.724768 
L 121.731285 40.204738 
L 121.533941 39.732617 
L 121.287555 39.316041 
L 120.993671 38.960859 
L 120.656699 38.669884 
L 120.283778 38.441932 
L 119.884086 38.271463 
L 119.467676 38.149034 
L 119.044024 38.062621 
L 118.620605 37.999637 
L 118.201832 37.94927 
L 117.788624 37.904606 
L 117.378724 37.86404 
L 116.967698 37.831583 
L 116.550367 37.815955 
L 116.12229 37.828665 
L 115.680954 37.881517 
L 115.226371 37.984129 
L 114.760992 38.142041 
L 114.289031 38.355795 
L 113.815406 38.621099 
L 113.344632 38.929929 
L 112.879905 39.27219 
L 112.422561 39.63749 
L 111.971944 40.016654 
L 111.525588 40.402731 
L 111.079608 40.791486 
L 110.629157 41.18148 
L 110.168912 41.573942 
L 109.693612 41.972564 
L 109.198698 42.383282 
L 108.681131 42.813952 
L 108.140328 43.273796 
L 107.579093 43.772471 
L 107.004306 44.318768 
L 106.427087 44.919075 
L 105.86224 45.575912 
L 105.326901 46.286906 
L 104.838546 47.044533 
L 104.412676 47.836814 
L 104.06064 48.648898 
L 103.788071 49.465228 
L 103.594271 50.271841 
L 103.472701 51.058285 
L 103.412455 51.818735 
L 103.400407 52.552099 
L 103.423569 53.261151 
L 103.471214 53.950923 
L 103.536386 54.62677 
L 103.616611 55.292498 
L 103.713802 55.948901 
L 103.833495 56.592916 
L 103.983627 57.217449 
L 104.173123 57.811835 
L 104.410464 58.362795 
L 104.702405 58.855797 
L 105.05294 59.276657 
L 105.4626 59.613238 
L 105.928151 59.857087 
L 106.442774 60.004751 
L 106.996736 60.058531 
L 107.578512 60.02644 
L 108.176216 59.921229 
L 108.779099 59.758545 
L 109.378807 59.554485 
L 109.970137 59.323002 
L 110.551096 59.073747 
L 111.122273 58.810832 
L 111.685687 58.532861 
L 112.243451 58.234216 
L 112.796631 57.907311 
L 113.344632 57.545198 
L 113.885282 57.143869 
L 114.415559 56.703622 
L 114.9327 56.22917 
L 115.435308 55.728487 
L 115.924057 55.21076 
L 116.40173 54.684052 
L 116.872515 54.153342 
L 117.340744 53.619469 
L 117.809416 53.079228 
L 118.278946 52.526544 
L 118.746485 51.95433 
L 119.206027 51.356499 
L 119.649279 50.729588 
L 120.067041 50.073628 
L 120.45076 49.392106 
L 120.793853 48.691166 
L 121.09252 47.978352 
L 121.345902 47.261264 
L 121.555638 46.546489 
L 121.724995 45.839003 
L 121.85782 45.142093 
L 121.95756 44.457724 
L 122.026511 43.787186 
L 122.065391 43.131832 
L 122.073228 42.493765 
L 122.073228 42.493765 
z
" clip-path="url(#p77a2f21d46)" style="fill: none; stroke: #4892ec; stroke-width: 0.9; stroke-linejoin: miter"/>
   </g>
   <g id="patch_16">
    <path d="M 124.509187 41.087363 
L 124.476318 40.29765 
L 124.395943 39.540662 
L 124.262777 38.824679 
L 124.071816 38.15952 
L 123.819397 37.55564 
L 123.504251 37.022807 
L 123.128349 36.568502 
L 122.697336 36.196321 
L 122.220341 35.904753 
L 121.709104 35.68671 
L 121.176483 35.530114 
L 120.634599 35.419585 
L 120.093013 35.339024 
L 119.55737 35.274599 
L 119.028845 35.217471 
L 118.50455 35.165584 
L 117.978816 35.124069 
L 117.445017 35.104079 
L 116.897474 35.120337 
L 116.332971 35.187938 
L 115.751523 35.319187 
L 115.156267 35.521169 
L 114.552592 35.794577 
L 113.946789 36.133922 
L 113.344632 36.52894 
L 112.75021 36.966717 
L 112.165232 37.433965 
L 111.588857 37.918945 
L 111.017933 38.412768 
L 110.44749 38.910015 
L 109.871327 39.408849 
L 109.282639 39.910839 
L 108.674692 40.420707 
L 108.041659 40.946047 
L 107.379651 41.496908 
L 106.687921 42.085084 
L 105.970058 42.722928 
L 105.234861 43.421684 
L 104.496553 44.189524 
L 103.774069 45.02967 
L 103.089329 45.939087 
L 102.464685 46.908151 
L 101.919964 47.92154 
L 101.469682 48.960259 
L 101.121045 50.004408 
L 100.873159 51.036129 
L 100.717662 52.042053 
L 100.640603 53.014727 
L 100.625192 53.952757 
L 100.654819 54.859689 
L 100.715761 55.741962 
L 100.79912 56.606423 
L 100.901734 57.457941 
L 101.02605 58.297532 
L 101.179146 59.121276 
L 101.371176 59.920104 
L 101.613556 60.680369 
L 101.917134 61.38509 
L 102.290549 62.015679 
L 102.738912 62.553991 
L 103.262898 62.984505 
L 103.858374 63.296407 
L 104.516618 63.48528 
L 105.225178 63.554069 
L 105.969315 63.513022 
L 106.733825 63.378449 
L 107.504959 63.170364 
L 108.272033 62.909354 
L 109.02839 62.61327 
L 109.771482 62.294453 
L 110.502061 61.958165 
L 111.222712 61.602617 
L 111.936136 61.220628 
L 112.643696 60.802491 
L 113.344632 60.339321 
L 114.036166 59.825989 
L 114.714432 59.262878 
L 115.375895 58.656018 
L 116.01877 58.015605 
L 116.643918 57.353391 
L 117.254899 56.679691 
L 117.85707 56.000872 
L 118.45597 55.318006 
L 119.055439 54.626996 
L 119.656005 53.920071 
L 120.254023 53.188164 
L 120.841814 52.423491 
L 121.408767 51.621624 
L 121.943118 50.782599 
L 122.433924 49.910879 
L 122.872767 49.014323 
L 123.254785 48.102578 
L 123.57888 47.185366 
L 123.847149 46.271114 
L 124.06377 45.366184 
L 124.233664 44.474781 
L 124.361238 43.59942 
L 124.449432 42.741749 
L 124.499163 41.903501 
L 124.509187 41.087363 
L 124.509187 41.087363 
z
" clip-path="url(#p77a2f21d46)" style="fill: none; stroke: #4892ec; stroke-width: 0.9; stroke-linejoin: miter"/>
   </g>
   <g id="patch_17">
    <path d="M 126.537253 39.916459 
L 126.498413 38.983293 
L 126.403437 38.088796 
L 126.246081 37.242753 
L 126.020432 36.456766 
L 125.72216 35.743191 
L 125.349767 35.113567 
L 124.905583 34.576737 
L 124.396275 34.136949 
L 123.832632 33.792416 
L 123.228528 33.534765 
L 122.599156 33.349724 
L 121.958837 33.219117 
L 121.31887 33.123921 
L 120.685927 33.047794 
L 120.061394 32.980288 
L 119.44186 32.918976 
L 118.820626 32.869919 
L 118.189861 32.846298 
L 117.542855 32.865509 
L 116.875809 32.945391 
L 116.188739 33.100481 
L 115.485355 33.339154 
L 114.77202 33.662227 
L 114.056172 34.063215 
L 113.344632 34.529988 
L 112.642232 35.047289 
L 111.950991 35.599413 
L 111.269916 36.172491 
L 110.595283 36.756018 
L 109.921217 37.343591 
L 109.240394 37.933039 
L 108.544769 38.526216 
L 107.826388 39.128703 
L 107.078363 39.749472 
L 106.296099 40.400398 
L 105.478715 41.095418 
L 104.630451 41.849128 
L 103.761703 42.674814 
L 102.88928 43.582133 
L 102.035555 44.574895 
L 101.226431 45.649509 
L 100.488319 46.794605 
L 99.844648 47.992079 
L 99.312572 49.219483 
L 98.900604 50.453304 
L 98.607689 51.67244 
L 98.423946 52.861091 
L 98.332889 54.010454 
L 98.314679 55.11888 
L 98.349687 56.190558 
L 98.421699 57.233097 
L 98.520201 58.25459 
L 98.641455 59.260788 
L 98.788353 60.252892 
L 98.969259 61.226272 
L 99.196172 62.170208 
L 99.482581 63.068576 
L 99.841304 63.901311 
L 100.282552 64.646448 
L 100.81236 65.282546 
L 101.431529 65.791263 
L 102.135175 66.159823 
L 102.91299 66.383006 
L 103.750262 66.464291 
L 104.629572 66.415787 
L 105.532958 66.256768 
L 106.44417 66.010884 
L 107.350585 65.702462 
L 108.244335 65.352593 
L 109.122411 64.975863 
L 109.985702 64.578487 
L 110.837261 64.158353 
L 111.68028 63.706975 
L 112.51637 63.212882 
L 113.344632 62.665576 
L 114.161784 62.058996 
L 114.963259 61.393596 
L 115.744879 60.676498 
L 116.504533 59.919753 
L 117.243241 59.137246 
L 117.965208 58.341167 
L 118.676764 57.539039 
L 119.384456 56.732129 
L 120.09282 55.915596 
L 120.802479 55.080256 
L 121.509129 54.215397 
L 122.203693 53.311819 
L 122.873635 52.364291 
L 123.505051 51.372856 
L 124.085013 50.342786 
L 124.603573 49.283368 
L 125.054985 48.206002 
L 125.437953 47.122177 
L 125.754954 46.041849 
L 126.010925 44.972537 
L 126.21168 43.919209 
L 126.362428 42.884836 
L 126.466643 41.871368 
L 126.525407 40.88085 
L 126.537253 39.916459 
L 126.537253 39.916459 
z
" clip-path="url(#p77a2f21d46)" style="fill: none; stroke: #4892ec; stroke-width: 0.9; stroke-linejoin: miter"/>
   </g>
   <g id="patch_18">
    <path d="M 128.225725 38.941619 
L 128.181915 37.88902 
L 128.074783 36.88004 
L 127.897288 35.925716 
L 127.642758 35.039134 
L 127.306312 34.23423 
L 126.886258 33.524024 
L 126.385224 32.918486 
L 125.810732 32.422411 
L 125.174951 32.033783 
L 124.49353 31.743157 
L 123.783607 31.534433 
L 123.061336 31.38711 
L 122.339462 31.279731 
L 121.625511 31.19386 
L 120.921046 31.117714 
L 120.222221 31.048556 
L 119.521477 30.99322 
L 118.809983 30.966576 
L 118.080169 30.988245 
L 117.32775 31.078351 
L 116.552746 31.25329 
L 115.759338 31.52251 
L 114.954706 31.886932 
L 114.147239 32.33924 
L 113.344632 32.865754 
L 112.552334 33.449263 
L 111.772625 34.072051 
L 111.004382 34.718475 
L 110.243404 35.376685 
L 109.483068 36.03946 
L 108.715109 36.704349 
L 107.930453 37.373444 
L 107.120129 38.053042 
L 106.276367 38.75326 
L 105.393985 39.487496 
L 104.471987 40.271469 
L 103.515156 41.121643 
L 102.535221 42.053006 
L 101.55114 43.076449 
L 100.58815 44.19627 
L 99.675469 45.40842 
L 98.84289 46.700072 
L 98.116838 48.050806 
L 97.516663 49.435301 
L 97.051968 50.827034 
L 96.721565 52.202202 
L 96.514305 53.542985 
L 96.411594 54.83945 
L 96.391053 56.089739 
L 96.430542 57.298577 
L 96.511771 58.474546 
L 96.622879 59.626776 
L 96.759652 60.761754 
L 96.925351 61.880833 
L 97.12941 62.978792 
L 97.385366 64.043539 
L 97.708431 65.056886 
L 98.113066 65.9962 
L 98.610786 66.836704 
L 99.208403 67.554213 
L 99.906817 68.128039 
L 100.70052 68.54377 
L 101.577884 68.795517 
L 102.522316 68.887205 
L 103.514166 68.832493 
L 104.533172 68.653122 
L 105.561007 68.375769 
L 106.58343 68.027872 
L 107.591568 67.633225 
L 108.582026 67.208279 
L 109.555806 66.760045 
L 110.516352 66.28614 
L 111.467266 65.776991 
L 112.410364 65.219661 
L 113.344632 64.602307 
L 114.266369 63.918094 
L 115.17042 63.167531 
L 116.052077 62.358655 
L 116.908956 61.505057 
L 117.742209 60.622401 
L 118.556577 59.724433 
L 119.359203 58.819644 
L 120.15747 57.909462 
L 120.956494 56.988423 
L 121.75698 56.046171 
L 122.554071 55.070622 
L 123.33753 54.051399 
L 124.093215 52.9826 
L 124.805444 51.864276 
L 125.459633 50.702371 
L 126.044561 49.507362 
L 126.553748 48.292109 
L 126.985731 47.069569 
L 127.343303 45.850974 
L 127.632034 44.644805 
L 127.858483 43.456665 
L 128.028526 42.289907 
L 128.146078 41.146729 
L 128.212364 40.029438 
L 128.225725 38.941619 
L 128.225725 38.941619 
z
" clip-path="url(#p77a2f21d46)" style="fill: none; stroke: #4892ec; stroke-width: 0.9; stroke-linejoin: miter"/>
   </g>
   <g id="patch_19">
    <path d="M 129.631468 38.130013 
L 129.583519 36.97798 
L 129.466267 35.873687 
L 129.272005 34.829212 
L 128.993432 33.858879 
L 128.625203 32.97794 
L 128.165468 32.200644 
L 127.617104 31.537904 
L 126.988342 30.994968 
L 126.292502 30.569628 
L 125.546711 30.251548 
L 124.769725 30.023106 
L 123.979224 29.861866 
L 123.189159 29.744344 
L 122.407765 29.650362 
L 121.636753 29.567023 
L 120.871912 29.491331 
L 120.104973 29.430768 
L 119.326267 29.401607 
L 118.527512 29.425323 
L 117.704016 29.52394 
L 116.8558 29.715406 
L 115.987443 30.010058 
L 115.106802 30.408905 
L 114.223057 30.90394 
L 113.344632 31.480191 
L 112.47749 32.118821 
L 111.624125 32.800441 
L 110.78331 33.507929 
L 109.950447 34.228317 
L 109.118285 34.953701 
L 108.277781 35.681399 
L 107.419003 36.4137 
L 106.532131 37.157496 
L 105.608663 37.92386 
L 104.642926 38.727456 
L 103.633832 39.585487 
L 102.586614 40.515973 
L 101.51411 41.535317 
L 100.437068 42.65544 
L 99.383109 43.881044 
L 98.384211 45.2077 
L 97.472982 46.621369 
L 96.678343 48.0997 
L 96.021473 49.614981 
L 95.512881 51.138184 
L 95.151266 52.643258 
L 94.924427 54.110697 
L 94.812014 55.529633 
L 94.789533 56.89803 
L 94.832752 58.221061 
L 94.921654 59.508119 
L 95.043258 60.769194 
L 95.192951 62.011387 
L 95.374303 63.236181 
L 95.597639 64.437858 
L 95.877773 65.603187 
L 96.231357 66.71226 
L 96.674215 67.740306 
L 97.218953 68.660208 
L 97.873023 69.445497 
L 98.637413 70.07353 
L 99.506093 70.528532 
L 100.466338 70.804061 
L 101.499985 70.90441 
L 102.58553 70.84453 
L 103.700797 70.648215 
L 104.825726 70.344661 
L 105.944732 69.963901 
L 107.048104 69.531973 
L 108.132126 69.066884 
L 109.197894 68.576307 
L 110.249178 68.057635 
L 111.28992 67.500389 
L 112.322108 66.890411 
L 113.344632 66.214739 
L 114.35344 65.465891 
L 115.342894 64.644427 
L 116.307836 63.75914 
L 117.24566 62.824907 
L 118.157626 61.85887 
L 119.048924 60.876077 
L 119.92737 59.885817 
L 120.801045 58.889654 
L 121.675549 57.881609 
L 122.551653 56.850347 
L 123.424041 55.782643 
L 124.28151 54.667139 
L 125.10858 53.497376 
L 125.88809 52.273409 
L 126.604077 51.001744 
L 127.244261 49.69385 
L 127.801548 48.363797 
L 128.274338 47.02577 
L 128.665688 45.692061 
L 128.981694 44.371951 
L 129.229535 43.071573 
L 129.41564 41.794597 
L 129.544297 40.543429 
L 129.616845 39.320593 
L 129.631468 38.130013 
L 129.631468 38.130013 
z
" clip-path="url(#p77a2f21d46)" style="fill: none; stroke: #4892ec; stroke-width: 0.9; stroke-linejoin: miter"/>
   </g>
   <g id="patch_20">
    <path d="M 130.801824 37.454308 
L 130.75043 36.219491 
L 130.624752 35.035844 
L 130.416531 33.916314 
L 130.117939 32.876254 
L 129.72325 31.932012 
L 129.230479 31.09886 
L 128.64271 30.388497 
L 127.968766 29.806545 
L 127.222923 29.350641 
L 126.423541 29.009704 
L 125.590721 28.764847 
L 124.743416 28.59202 
L 123.896577 28.466053 
L 123.059032 28.365317 
L 122.232616 28.275989 
L 121.412815 28.194858 
L 120.590765 28.129943 
L 119.756102 28.098687 
L 118.899949 28.124108 
L 118.017277 28.229811 
L 117.108109 28.435035 
L 116.177353 28.75086 
L 115.233429 29.178368 
L 114.28618 29.708976 
L 113.344632 30.326636 
L 112.415178 31.011157 
L 111.500491 31.741758 
L 110.599256 32.500086 
L 109.706544 33.27224 
L 108.814584 34.049749 
L 107.913682 34.829738 
L 106.993193 35.614662 
L 106.042592 36.411906 
L 105.052764 37.233341 
L 104.01763 38.094682 
L 102.936023 39.01437 
L 101.813554 40.01172 
L 100.66398 41.104313 
L 99.509543 42.304927 
L 98.379847 43.618603 
L 97.30917 45.04059 
L 96.332461 46.555844 
L 95.48072 48.140407 
L 94.776648 49.764574 
L 94.231509 51.397233 
L 93.843909 53.01046 
L 93.600769 54.583348 
L 93.480278 56.104247 
L 93.456181 57.570976 
L 93.502506 58.989079 
L 93.597797 60.368623 
L 93.72814 61.720318 
L 93.888589 63.051774 
L 94.082973 64.36458 
L 94.322357 65.652609 
L 94.622622 66.901677 
L 95.001613 68.090447 
L 95.476295 69.192367 
L 96.060178 70.178373 
L 96.761249 71.020091 
L 97.580567 71.693254 
L 98.511669 72.180952 
L 99.540916 72.47628 
L 100.64884 72.58384 
L 101.812392 72.519657 
L 103.0078 72.309235 
L 104.213566 71.983868 
L 105.412983 71.575747 
L 106.595642 71.112782 
L 107.75756 70.614271 
L 108.899914 70.088442 
L 110.026742 69.532499 
L 111.142271 68.93521 
L 112.24863 68.281399 
L 113.344632 67.557174 
L 114.425932 66.754515 
L 115.486487 65.874021 
L 116.520769 64.925118 
L 117.525984 63.923752 
L 118.503483 62.888297 
L 119.458829 61.834881 
L 120.400399 60.773462 
L 121.336855 59.705715 
L 122.2742 58.625234 
L 123.213261 57.519867 
L 124.148338 56.375439 
L 125.067423 55.179775 
L 125.953926 53.925954 
L 126.78945 52.614034 
L 127.556888 51.250989 
L 128.243074 49.84911 
L 128.840408 48.423481 
L 129.347172 46.989305 
L 129.766644 45.559756 
L 130.105358 44.144785 
L 130.371008 42.750963 
L 130.570487 41.382225 
L 130.708389 40.041149 
L 130.78615 38.730442 
L 130.801824 37.454308 
L 130.801824 37.454308 
z
" clip-path="url(#p77a2f21d46)" style="fill: none; stroke: #4892ec; stroke-width: 0.9; stroke-linejoin: miter"/>
   </g>
   <g id="matplotlib.axis_1"/>
   <g id="matplotlib.axis_2"/>
  </g>
 </g>
 <defs>
  <clipPath id="p9fa904522b">
   <rect x="1.44" y="1.44" width="141.12" height="141.12"/>
  </clipPath>
  <clipPath id="p77a2f21d46">
   <path d="M 73.4112 136.461879 
L 130.45896 103.52534 
L 130.45896 37.65226 
L 73.4112 70.5888 
L 73.4112 136.461879 
"/>
  </clipPath>
 </defs>
</svg>
