<?xml version="1.0" encoding="utf-8" standalone="no"?>
<!DOCTYPE svg PUBLIC "-//W3C//DTD SVG 1.1//EN"
  "http://www.w3.org/Graphics/SVG/1.1/DTD/svg11.dtd">
<svg xmlns:xlink="http://www.w3.org/1999/xlink" width="72pt" height="72pt" viewBox="0 0 72 72" xmlns="http://www.w3.org/2000/svg" version="1.1">
 <metadata>
  <rdf:RDF xmlns:dc="http://purl.org/dc/elements/1.1/" xmlns:cc="http://creativecommons.org/ns#" xmlns:rdf="http://www.w3.org/1999/02/22-rdf-syntax-ns#">
   <cc:Work>
    <dc:type rdf:resource="http://purl.org/dc/dcmitype/StillImage"/>
    <dc:date>2023-12-08T20:26:02.552960</dc:date>
    <dc:format>image/svg+xml</dc:format>
    <dc:creator>
     <cc:Agent>
      <dc:title>Matplotlib v3.8.2, https://matplotlib.org/</dc:title>
     </cc:Agent>
    </dc:creator>
   </cc:Work>
  </rdf:RDF>
 </metadata>
 <defs>
  <style type="text/css">*{stroke-linejoin: round; stroke-linecap: butt}</style>
 </defs>
 <g id="figure_1">
  <g id="patch_1">
   <path d="M 0 72 
L 72 72 
L 72 0 
L 0 0 
L 0 72 
z
" style="fill: none"/>
  </g>
  <g id="axes_1">
   <g id="patch_2">
    <path d="M 0.72 71.28 
L 71.28 71.28 
L 71.28 0.72 
L 0.72 0.72 
L 0.72 71.28 
z
" style="fill: none"/>
   </g>
   <g id="line2d_1">
    <path d="M 65.22948 44.443439 
L 65.22948 40.783823 
L 65.22948 37.124208 
L 65.22948 33.464592 
L 65.22948 29.804977 
L 65.22948 26.145361 
L 65.22948 22.485746 
L 65.22948 18.82613 
L 65.22948 18.82613 
L 62.06016 16.996322 
L 58.89084 15.166515 
L 55.72152 13.336707 
L 52.5522 11.506899 
L 49.38288 9.677091 
L 46.21356 7.847284 
L 43.04424 6.017476 
L 39.87492 4.187668 
L 36.7056 2.35786 
L 36.7056 2.35786 
L 33.53628 4.187668 
L 30.36696 6.017476 
L 27.19764 7.847284 
L 24.02832 9.677091 
L 20.859 11.506899 
L 17.68968 13.336707 
L 14.52036 15.166515 
L 11.35104 16.996322 
L 8.18172 18.82613 
L 8.18172 18.82613 
L 8.18172 22.485746 
L 8.18172 26.145361 
L 8.18172 29.804977 
L 8.18172 33.464592 
L 8.18172 37.124208 
L 8.18172 40.783823 
L 8.18172 44.443439 
L 8.18172 48.103054 
L 8.18172 51.76267 
L 8.18172 51.76267 
L 11.35104 53.592478 
L 14.52036 55.422285 
L 17.68968 57.252093 
L 20.859 59.081901 
L 24.02832 60.911709 
L 27.19764 62.741516 
L 30.36696 64.571324 
L 33.53628 66.401132 
L 36.7056 68.23094 
L 36.7056 68.23094 
L 39.87492 66.401132 
L 43.04424 64.571324 
L 46.21356 62.741516 
L 49.38288 60.911709 
L 52.5522 59.081901 
L 55.72152 57.252093 
L 58.89084 55.422285 
L 62.06016 53.592478 
L 65.22948 51.76267 
L 65.22948 51.76267 
L 65.22948 48.103054 
L 65.22948 44.443439 
L 65.22948 40.783823 
L 65.22948 37.124208 
" clip-path="url(#p6ace87e7b7)" style="fill: none; stroke: #000000; stroke-width: 3.6; stroke-linecap: square"/>
   </g>
   <g id="matplotlib.axis_1"/>
   <g id="matplotlib.axis_2"/>
   <g id="text_1">
    <!-- cct -->
    <g transform="translate(40.295786 36.230353) rotate(-30) scale(0.14 -0.14)">
     <defs>
      <path id="DejaVuSansMono-Bold-63" d="M 3316 178 
Q 3084 44 2818 -23 
Q 2553 -91 2247 -91 
Q 1438 -91 981 396 
Q 525 884 525 1747 
Q 525 2613 984 3102 
Q 1444 3591 2253 3591 
Q 2534 3591 2795 3525 
Q 3056 3459 3316 3322 
L 3316 2484 
Q 3116 2656 2877 2748 
Q 2638 2841 2381 2841 
Q 1934 2841 1693 2556 
Q 1453 2272 1453 1747 
Q 1453 1222 1693 940 
Q 1934 659 2381 659 
Q 2647 659 2878 748 
Q 3109 838 3316 1019 
L 3316 178 
z
" transform="scale(0.015625)"/>
      <path id="DejaVuSansMono-Bold-74" d="M 2156 4494 
L 2156 3500 
L 3353 3500 
L 3353 2797 
L 2156 2797 
L 2156 1141 
Q 2156 906 2270 804 
Q 2384 703 2650 703 
L 3353 703 
L 3353 0 
L 2584 0 
Q 1797 0 1519 251 
Q 1241 503 1241 1184 
L 1241 2797 
L 347 2797 
L 347 3500 
L 1241 3500 
L 1241 4494 
L 2156 4494 
z
" transform="scale(0.015625)"/>
     </defs>
     <use xlink:href="#DejaVuSansMono-Bold-63"/>
     <use xlink:href="#DejaVuSansMono-Bold-63" x="60.205078"/>
     <use xlink:href="#DejaVuSansMono-Bold-74" x="120.410156"/>
    </g>
   </g>
   <g id="text_2">
    <!-- ata -->
    <g transform="translate(40.295786 48.158521) rotate(-30) scale(0.14 -0.14)">
     <defs>
      <path id="DejaVuSansMono-Bold-61" d="M 2188 1644 
Q 1675 1644 1472 1512 
Q 1269 1381 1269 1063 
Q 1269 825 1409 684 
Q 1550 544 1791 544 
Q 2153 544 2353 817 
Q 2553 1091 2553 1581 
L 2553 1644 
L 2188 1644 
z
M 3463 1997 
L 3463 0 
L 2553 0 
L 2553 391 
Q 2388 159 2128 34 
Q 1869 -91 1556 -91 
Q 959 -91 626 225 
Q 294 541 294 1106 
Q 294 1719 691 2011 
Q 1088 2303 1919 2303 
L 2553 2303 
L 2553 2456 
Q 2553 2678 2392 2792 
Q 2231 2906 1919 2906 
Q 1591 2906 1283 2823 
Q 975 2741 641 2559 
L 641 3341 
Q 944 3466 1256 3525 
Q 1569 3584 1919 3584 
Q 2772 3584 3117 3237 
Q 3463 2891 3463 1997 
z
" transform="scale(0.015625)"/>
     </defs>
     <use xlink:href="#DejaVuSansMono-Bold-61"/>
     <use xlink:href="#DejaVuSansMono-Bold-74" x="60.205078"/>
     <use xlink:href="#DejaVuSansMono-Bold-61" x="120.410156"/>
    </g>
   </g>
   <g id="text_3">
    <!-- gtg -->
    <g transform="translate(40.295786 60.086689) rotate(-30) scale(0.14 -0.14)">
     <defs>
      <path id="DejaVuSansMono-Bold-67" d="M 2509 1806 
Q 2509 2275 2331 2558 
Q 2153 2841 1863 2841 
Q 1575 2841 1398 2559 
Q 1222 2278 1222 1806 
Q 1222 1331 1398 1050 
Q 1575 769 1863 769 
Q 2153 769 2331 1051 
Q 2509 1334 2509 1806 
z
M 3425 263 
Q 3425 -578 3045 -951 
Q 2666 -1325 1813 -1325 
Q 1525 -1325 1244 -1283 
Q 963 -1241 672 -1153 
L 672 -313 
Q 931 -456 1200 -525 
Q 1469 -594 1753 -594 
Q 2141 -594 2325 -411 
Q 2509 -228 2509 159 
L 2509 538 
Q 2375 288 2153 166 
Q 1931 44 1613 44 
Q 1013 44 659 512 
Q 306 981 306 1784 
Q 306 2616 659 3103 
Q 1013 3591 1606 3591 
Q 1906 3591 2140 3450 
Q 2375 3309 2509 3053 
L 2509 3500 
L 3425 3500 
L 3425 263 
z
" transform="scale(0.015625)"/>
     </defs>
     <use xlink:href="#DejaVuSansMono-Bold-67"/>
     <use xlink:href="#DejaVuSansMono-Bold-74" x="60.205078"/>
     <use xlink:href="#DejaVuSansMono-Bold-67" x="120.410156"/>
    </g>
   </g>
  </g>
 </g>
 <defs>
  <clipPath id="p6ace87e7b7">
   <rect x="0.72" y="0.72" width="70.56" height="70.56"/>
  </clipPath>
 </defs>
</svg>
