<?xml version="1.0" encoding="utf-8" standalone="no"?>
<!DOCTYPE svg PUBLIC "-//W3C//DTD SVG 1.1//EN"
  "http://www.w3.org/Graphics/SVG/1.1/DTD/svg11.dtd">
<svg xmlns:xlink="http://www.w3.org/1999/xlink" width="144pt" height="144pt" viewBox="0 0 144 144" xmlns="http://www.w3.org/2000/svg" version="1.1">
 <metadata>
  <rdf:RDF xmlns:dc="http://purl.org/dc/elements/1.1/" xmlns:cc="http://creativecommons.org/ns#" xmlns:rdf="http://www.w3.org/1999/02/22-rdf-syntax-ns#">
   <cc:Work>
    <dc:type rdf:resource="http://purl.org/dc/dcmitype/StillImage"/>
    <dc:date>2023-12-10T12:48:33.204330</dc:date>
    <dc:format>image/svg+xml</dc:format>
    <dc:creator>
     <cc:Agent>
      <dc:title>Matplotlib v3.8.2, https://matplotlib.org/</dc:title>
     </cc:Agent>
    </dc:creator>
   </cc:Work>
  </rdf:RDF>
 </metadata>
 <defs>
  <style type="text/css">*{stroke-linejoin: round; stroke-linecap: butt}</style>
 </defs>
 <g id="figure_1">
  <g id="patch_1">
   <path d="M 0 144 
L 144 144 
L 144 0 
L 0 0 
L 0 144 
z
" style="fill: none"/>
  </g>
  <g id="axes_1">
   <g id="patch_2">
    <path d="M 1.44 142.56 
L 142.56 142.56 
L 142.56 1.44 
L 1.44 1.44 
L 1.44 142.56 
z
" style="fill: none"/>
   </g>
   <g id="line2d_1">
    <path d="M 130.45896 100.198416 
L 130.45896 37.65226 
L 130.45896 37.65226 
L 73.4112 4.715721 
L 73.4112 4.715721 
L 16.36344 37.65226 
L 16.36344 37.65226 
L 16.36344 103.52534 
L 16.36344 103.52534 
L 73.4112 136.461879 
L 73.4112 136.461879 
L 130.45896 103.52534 
L 130.45896 97.536878 
L 130.45896 97.536878 
" clip-path="url(#p0ea6c323c4)" style="fill: none; stroke: #4892ec; stroke-width: 2.4; stroke-linecap: square"/>
   </g>
   <g id="line2d_2">
    <path d="M 77.106662 88.949422 
L 76.821423 89.114105 
L 76.536184 89.278788 
L 76.250946 89.44347 
L 75.965707 89.608153 
L 75.680468 89.772836 
L 75.395229 89.937519 
L 75.10999 90.102201 
L 74.824752 90.266884 
L 74.539513 90.431567 
L 74.254274 90.596249 
L 73.969035 90.760932 
L 73.683796 90.925615 
" clip-path="url(#p0ea6c323c4)" style="fill: none; stroke: #4892ec; stroke-width: 1.2; stroke-linecap: square"/>
   </g>
   <g id="matplotlib.axis_1"/>
   <g id="matplotlib.axis_2"/>
   <g id="line2d_3">
    <path d="M 124.754184 43.769046 
L 83.965036 67.410761 
L 83.109319 68.21807 
L 82.538842 69.202097 
L 81.968364 71.083251 
L 81.397886 74.46083 
L 80.256931 83.174086 
L 79.686454 85.750796 
L 79.115976 87.104117 
L 78.545498 87.844028 
L 77.689782 88.530279 
L 77.119304 88.894996 
L 77.119304 88.894996 
" clip-path="url(#p0ea6c323c4)" style="fill: none; stroke: #4892ec; stroke-width: 1.2; stroke-linecap: square"/>
   </g>
   <g id="line2d_4">
    <path d="M 83.822306 102.572142 
L 83.537067 102.661057 
L 83.251828 102.702241 
L 82.96659 102.667081 
L 82.681351 102.512156 
L 82.396112 102.175162 
L 82.110873 101.575045 
L 81.825634 100.624192 
L 81.540396 99.262338 
L 81.255157 97.510833 
L 80.969918 95.514772 
L 80.684679 93.518711 
L 80.39944 91.767206 
L 80.114202 90.405352 
L 79.828963 89.454499 
L 79.543724 88.854382 
L 79.258485 88.517388 
L 78.973246 88.362464 
L 78.688008 88.327303 
L 78.402769 88.368487 
L 78.11753 88.457402 
L 77.832291 88.575808 
L 77.547052 88.712304 
L 77.261814 88.859846 
" clip-path="url(#p0ea6c323c4)" style="fill: none; stroke: #4892ec; stroke-width: 1.2; stroke-linecap: square"/>
   </g>
   <g id="line2d_5">
    <path d="M 98.760904 80.04425 
L 98.475665 80.269547 
L 98.190426 80.533028 
L 97.905187 80.857585 
L 97.619949 81.277954 
L 97.33471 81.843977 
L 97.049471 82.620499 
L 96.764232 83.677611 
L 96.478993 85.063522 
L 96.193755 86.761154 
L 95.908516 88.65443 
L 95.623277 90.547707 
L 95.338038 92.245339 
L 95.052799 93.63125 
L 94.767561 94.688361 
L 94.482322 95.464884 
L 94.197083 96.030907 
L 93.911844 96.451275 
L 93.626605 96.775832 
L 93.341367 97.039314 
L 93.056128 97.264611 
L 92.770889 97.466315 
L 92.48565 97.653548 
L 92.200411 97.831943 
L 91.915173 98.004956 
L 91.629934 98.174696 
L 91.344695 98.342447 
L 91.059456 98.508992 
L 90.774217 98.674805 
L 90.488979 98.840173 
L 90.20374 99.005271 
L 89.918501 99.170206 
L 89.633262 99.335042 
L 89.348023 99.499817 
L 89.062785 99.664556 
L 88.777546 99.829273 
L 88.492307 99.993976 
L 88.207068 100.158671 
L 87.921829 100.323362 
L 87.636591 100.488049 
L 87.351352 100.652735 
L 87.066113 100.817419 
L 86.780874 100.982103 
L 86.495635 101.146786 
L 86.210397 101.311469 
L 85.925158 101.476152 
L 85.639919 101.640835 
L 85.35468 101.805518 
L 85.069441 101.9702 
L 84.784203 102.134883 
L 84.498964 102.299566 
L 84.213725 102.464249 
L 83.928486 102.628931 
" clip-path="url(#p0ea6c323c4)" style="fill: none; stroke: #4892ec; stroke-width: 1.2; stroke-linecap: square"/>
   </g>
   <g id="line2d_6">
    <path d="M 100.522112 107.159914 
L 100.236873 107.321783 
L 99.951634 107.481831 
L 99.666396 107.638878 
L 99.381157 107.79099 
L 99.095918 107.934995 
L 98.810679 108.065719 
L 98.52544 108.174771 
L 98.240202 108.248689 
L 97.954963 108.266275 
L 97.669724 108.195126 
L 97.384485 107.988183 
L 97.099246 107.582894 
L 96.814008 106.9087 
L 96.528769 105.910744 
L 96.24353 104.591455 
L 95.958291 103.049058 
L 95.673052 101.469811 
L 95.387814 100.056144 
L 95.102575 98.941428 
L 94.817336 98.158547 
L 94.532097 97.667322 
L 94.246858 97.398953 
L 93.96162 97.28658 
L 93.676381 97.277563 
L 93.391142 97.334723 
L 93.105903 97.433372 
L 92.820664 97.557697 
L 92.535426 97.697789 
L 92.250187 97.847514 
L 91.964948 98.003109 
L 91.679709 98.162274 
L 91.39447 98.323608 
L 91.109232 98.486259 
L 90.823993 98.649709 
L 90.538754 98.813644 
L 90.253515 98.977873 
L 89.968276 99.142281 
L 89.683038 99.306797 
L 89.397799 99.471378 
L 89.11256 99.635999 
L 88.827321 99.800645 
L 88.542082 99.965305 
L 88.256844 100.129974 
L 87.971605 100.294648 
L 87.686366 100.459326 
L 87.401127 100.624006 
L 87.115888 100.788687 
L 86.83065 100.953368 
L 86.545411 101.11805 
L 86.260172 101.282732 
L 85.974933 101.447415 
L 85.689694 101.612097 
L 85.404456 101.77678 
L 85.119217 101.941463 
L 84.833978 102.106145 
L 84.548739 102.270828 
L 84.2635 102.435511 
L 83.978262 102.600193 
" clip-path="url(#p0ea6c323c4)" style="fill: none; stroke: #4892ec; stroke-width: 1.2; stroke-linecap: square"/>
   </g>
   <g id="line2d_7">
    <path d="M 109.204033 66.909827 
L 108.918794 67.104817 
L 108.633555 67.318899 
L 108.348316 67.563519 
L 108.063077 67.856045 
L 107.777839 68.221398 
L 107.4926 68.692 
L 107.207361 69.302897 
L 106.922122 70.078195 
L 106.636883 71.009352 
L 106.351645 72.038332 
L 106.066406 73.067312 
L 105.781167 73.99847 
L 105.495928 74.773767 
L 105.210689 75.384664 
L 104.925451 75.855267 
L 104.640212 76.22062 
L 104.354973 76.513145 
L 104.069734 76.757765 
L 103.784495 76.971847 
L 103.499257 77.166837 
L 103.214018 77.350031 
L 102.928779 77.525988 
L 102.64354 77.697527 
L 102.358301 77.866375 
L 102.073063 78.033586 
L 101.787824 78.199804 
L 101.502585 78.365417 
L 101.217346 78.530665 
L 100.932107 78.69569 
L 100.646869 78.860581 
L 100.36163 79.025389 
L 100.076391 79.190149 
L 99.791152 79.354878 
L 99.505913 79.519589 
L 99.220675 79.684288 
L 98.935436 79.848981 
" clip-path="url(#p0ea6c323c4)" style="fill: none; stroke: #4892ec; stroke-width: 1.2; stroke-linecap: square"/>
   </g>
   <g id="line2d_8">
    <path d="M 124.754184 72.000366 
L 124.468945 72.165049 
L 124.183706 72.329731 
L 123.898468 72.494414 
L 123.613229 72.659097 
L 123.32799 72.823779 
L 123.042751 72.988462 
L 122.757512 73.153145 
L 122.472274 73.317828 
L 122.187035 73.48251 
L 121.901796 73.647193 
L 121.616557 73.811876 
L 121.331318 73.976558 
L 121.04608 74.141241 
L 120.760841 74.305924 
L 120.475602 74.470606 
L 120.190363 74.635289 
L 119.905124 74.799972 
L 119.619886 74.964655 
L 119.334647 75.129337 
L 119.049408 75.29402 
L 118.764169 75.458703 
L 118.47893 75.623385 
L 118.193692 75.788068 
L 117.908453 75.952751 
L 117.623214 76.117433 
L 117.337975 76.282116 
L 117.052736 76.446799 
L 116.767498 76.611481 
L 116.482259 76.776164 
L 116.19702 76.940847 
L 115.911781 77.105529 
L 115.626542 77.270212 
L 115.341304 77.434894 
L 115.056065 77.599576 
L 114.770826 77.764258 
L 114.485587 77.928939 
L 114.200348 78.093618 
L 113.91511 78.258296 
L 113.629871 78.422971 
L 113.344632 78.58764 
L 113.059393 78.752301 
L 112.774154 78.916948 
L 112.488916 79.081572 
L 112.203677 79.246157 
L 111.918438 79.410679 
L 111.633199 79.575097 
L 111.34796 79.739344 
L 111.062722 79.903307 
L 110.777483 80.066804 
L 110.492244 80.229533 
L 110.207005 80.390996 
L 109.921766 80.550378 
L 109.636528 80.706337 
L 109.351289 80.856686 
L 109.06605 80.997862 
L 108.780811 81.124131 
L 108.495572 81.226392 
L 108.210334 81.290569 
L 107.925095 81.295792 
L 107.639856 81.2133 
L 107.354617 81.008333 
L 107.069378 80.648822 
L 106.78414 80.123555 
L 106.498901 79.464087 
L 106.213662 78.751122 
L 105.928423 78.088414 
L 105.643184 77.558009 
L 105.357946 77.193108 
L 105.072707 76.983567 
L 104.787468 76.897658 
L 104.502229 76.900524 
L 104.21699 76.963154 
L 103.931752 77.06443 
L 103.646513 77.190084 
L 103.361274 77.33088 
L 103.076035 77.480996 
L 102.790796 77.636813 
L 102.505558 77.796108 
L 102.220319 77.957519 
L 101.93508 78.120215 
L 101.649841 78.283693 
L 101.364602 78.447645 
L 101.079364 78.611884 
L 100.794125 78.776297 
L 100.508886 78.940817 
L 100.223647 79.105401 
L 99.938408 79.270023 
L 99.65317 79.43467 
L 99.367931 79.59933 
L 99.082692 79.764 
L 98.797453 79.928674 
" clip-path="url(#p0ea6c323c4)" style="fill: none; stroke: #4892ec; stroke-width: 1.2; stroke-linecap: square"/>
   </g>
   <g id="line2d_9">
    <path d="M 124.754184 53.210978 
L 124.468945 53.395865 
L 124.183706 53.593481 
L 123.898468 53.811455 
L 123.613229 54.061366 
L 123.32799 54.359829 
L 123.042751 54.728458 
L 122.757512 55.190617 
L 122.472274 55.762376 
L 122.187035 56.438042 
L 121.901796 57.178923 
L 121.616557 57.919804 
L 121.331318 58.59547 
L 121.04608 59.167229 
L 120.760841 59.629388 
L 120.475602 59.998017 
L 120.190363 60.29648 
L 119.905124 60.546392 
L 119.619886 60.764366 
L 119.334647 60.961981 
L 119.049408 61.146869 
L 118.764169 61.323892 
L 118.47893 61.496091 
L 118.193692 61.665345 
L 117.908453 61.832804 
L 117.623214 61.999173 
L 117.337975 62.164878 
L 117.052736 62.330182 
L 116.767498 62.495241 
L 116.482259 62.660152 
L 116.19702 62.824973 
L 115.911781 62.98974 
L 115.626542 63.154474 
L 115.341304 63.319188 
L 115.056065 63.483889 
L 114.770826 63.648583 
L 114.485587 63.813273 
L 114.200348 63.97796 
L 113.91511 64.142645 
L 113.629871 64.307329 
L 113.344632 64.472013 
L 113.059393 64.636696 
L 112.774154 64.801379 
L 112.488916 64.966062 
L 112.203677 65.130745 
L 111.918438 65.295427 
L 111.633199 65.46011 
L 111.34796 65.624793 
L 111.062722 65.789476 
L 110.777483 65.954158 
L 110.492244 66.118841 
L 110.207005 66.283524 
L 109.921766 66.448206 
L 109.636528 66.612889 
L 109.351289 66.777572 
" clip-path="url(#p0ea6c323c4)" style="fill: none; stroke: #4892ec; stroke-width: 1.2; stroke-linecap: square"/>
   </g>
   <g id="line2d_10">
    <path d="M 124.754184 62.558435 
L 124.468945 62.702913 
L 124.183706 62.834662 
L 123.898468 62.946054 
L 123.613229 63.025508 
L 123.32799 63.05641 
L 123.042751 63.017146 
L 122.757512 62.884353 
L 122.472274 62.641959 
L 122.187035 62.295658 
L 121.901796 61.884143 
L 121.616557 61.472628 
L 121.331318 61.126327 
L 121.04608 60.883933 
L 120.760841 60.75114 
L 120.475602 60.711876 
L 120.190363 60.742778 
L 119.905124 60.822233 
L 119.619886 60.933624 
L 119.334647 61.065373 
L 119.049408 61.209851 
L 118.764169 61.362194 
L 118.47893 61.51936 
L 118.193692 61.679472 
L 117.908453 61.841378 
L 117.623214 62.004375 
L 117.337975 62.168034 
L 117.052736 62.332096 
L 116.767498 62.496402 
L 116.482259 62.660857 
L 116.19702 62.825401 
L 115.911781 62.989999 
L 115.626542 63.154631 
L 115.341304 63.319283 
L 115.056065 63.483947 
L 114.770826 63.648618 
L 114.485587 63.813294 
L 114.200348 63.977972 
L 113.91511 64.142653 
L 113.629871 64.307334 
L 113.344632 64.472016 
L 113.059393 64.636698 
L 112.774154 64.80138 
L 112.488916 64.966062 
L 112.203677 65.130745 
L 111.918438 65.295428 
L 111.633199 65.46011 
L 111.34796 65.624793 
L 111.062722 65.789476 
L 110.777483 65.954158 
L 110.492244 66.118841 
L 110.207005 66.283524 
L 109.921766 66.448206 
L 109.636528 66.612889 
L 109.351289 66.777572 
" clip-path="url(#p0ea6c323c4)" style="fill: none; stroke: #4892ec; stroke-width: 1.2; stroke-linecap: square"/>
   </g>
   <g id="line2d_11">
    <path d="M 112.060026 93.492238 
L 111.774787 93.687228 
L 111.489549 93.90131 
L 111.20431 94.14593 
L 110.919071 94.438456 
L 110.633832 94.803809 
L 110.348593 95.274412 
L 110.063355 95.885309 
L 109.778116 96.660606 
L 109.492877 97.591763 
L 109.207638 98.620743 
L 108.922399 99.649723 
L 108.637161 100.580881 
L 108.351922 101.356178 
L 108.066683 101.967075 
L 107.781444 102.437678 
L 107.496205 102.803031 
L 107.210967 103.095556 
L 106.925728 103.340176 
L 106.640489 103.554259 
L 106.35525 103.749248 
L 106.070011 103.932442 
L 105.784773 104.108399 
L 105.499534 104.279938 
L 105.214295 104.448786 
L 104.929056 104.615997 
L 104.643817 104.782215 
L 104.358579 104.947828 
L 104.07334 105.113076 
L 103.788101 105.278101 
L 103.502862 105.442992 
L 103.217623 105.607801 
L 102.932385 105.77256 
L 102.647146 105.937289 
L 102.361907 106.102 
L 102.076668 106.266699 
L 101.791429 106.431392 
L 101.506191 106.596081 
L 101.220952 106.760768 
L 100.935713 106.925453 
L 100.650474 107.090137 
" clip-path="url(#p0ea6c323c4)" style="fill: none; stroke: #4892ec; stroke-width: 1.2; stroke-linecap: square"/>
   </g>
   <g id="line2d_12">
    <path d="M 124.754184 100.231686 
L 124.468945 100.396368 
L 124.183706 100.561051 
L 123.898468 100.725734 
L 123.613229 100.890416 
L 123.32799 101.055099 
L 123.042751 101.219782 
L 122.757512 101.384465 
L 122.472274 101.549147 
L 122.187035 101.71383 
L 121.901796 101.878513 
L 121.616557 102.043195 
L 121.331318 102.207878 
L 121.04608 102.372561 
L 120.760841 102.537243 
L 120.475602 102.701926 
L 120.190363 102.866609 
L 119.905124 103.031291 
L 119.619886 103.195974 
L 119.334647 103.360657 
L 119.049408 103.525339 
L 118.764169 103.690022 
L 118.47893 103.854704 
L 118.193692 104.019387 
L 117.908453 104.184069 
L 117.623214 104.34875 
L 117.337975 104.513431 
L 117.052736 104.678111 
L 116.767498 104.842789 
L 116.482259 105.007463 
L 116.19702 105.172133 
L 115.911781 105.336794 
L 115.626542 105.50144 
L 115.341304 105.666064 
L 115.056065 105.830648 
L 114.770826 105.995169 
L 114.485587 106.159586 
L 114.200348 106.323829 
L 113.91511 106.487788 
L 113.629871 106.651278 
L 113.344632 106.813994 
L 113.059393 106.975437 
L 112.774154 107.134785 
L 112.488916 107.29069 
L 112.203677 107.440948 
L 111.918438 107.581977 
L 111.633199 107.708008 
L 111.34796 107.809888 
L 111.062722 107.873466 
L 110.777483 107.877776 
L 110.492244 107.79396 
L 110.207005 107.587219 
L 109.921766 107.225613 
L 109.636528 106.698345 
L 109.351289 106.037607 
L 109.06605 105.324628 
L 108.780811 104.66317 
L 108.495572 104.134759 
L 108.210334 103.771954 
L 107.925095 103.564197 
L 107.639856 103.47962 
L 107.354617 103.483406 
L 107.069378 103.54664 
L 106.78414 103.648302 
L 106.498901 103.774196 
L 106.213662 103.91514 
L 105.928423 104.065347 
L 105.643184 104.22122 
L 105.357946 104.380548 
L 105.072707 104.54198 
L 104.787468 104.704689 
L 104.502229 104.868174 
L 104.21699 105.03213 
L 103.931752 105.196372 
L 103.646513 105.360788 
L 103.361274 105.525308 
L 103.076035 105.689892 
L 102.790796 105.854516 
L 102.505558 106.019162 
L 102.220319 106.183823 
L 101.93508 106.348492 
L 101.649841 106.513167 
L 101.364602 106.677845 
L 101.079364 106.842524 
L 100.794125 107.007205 
" clip-path="url(#p0ea6c323c4)" style="fill: none; stroke: #4892ec; stroke-width: 1.2; stroke-linecap: square"/>
   </g>
   <g id="line2d_13">
    <path d="M 124.754184 81.442297 
L 124.468945 81.627185 
L 124.183706 81.8248 
L 123.898468 82.042774 
L 123.613229 82.292686 
L 123.32799 82.591149 
L 123.042751 82.959778 
L 122.757512 83.421937 
L 122.472274 83.993696 
L 122.187035 84.669362 
L 121.901796 85.410243 
L 121.616557 86.151124 
L 121.331318 86.82679 
L 121.04608 87.398549 
L 120.760841 87.860708 
L 120.475602 88.229337 
L 120.190363 88.5278 
L 119.905124 88.777711 
L 119.619886 88.995685 
L 119.334647 89.193301 
L 119.049408 89.378188 
L 118.764169 89.555212 
L 118.47893 89.727411 
L 118.193692 89.896664 
L 117.908453 90.064124 
L 117.623214 90.230492 
L 117.337975 90.396198 
L 117.052736 90.561501 
L 116.767498 90.726561 
L 116.482259 90.891472 
L 116.19702 91.056293 
L 115.911781 91.22106 
L 115.626542 91.385794 
L 115.341304 91.550507 
L 115.056065 91.715209 
L 114.770826 91.879903 
L 114.485587 92.044592 
L 114.200348 92.209279 
L 113.91511 92.373964 
L 113.629871 92.538649 
L 113.344632 92.703332 
L 113.059393 92.868016 
L 112.774154 93.032699 
L 112.488916 93.197381 
L 112.203677 93.362064 
" clip-path="url(#p0ea6c323c4)" style="fill: none; stroke: #4892ec; stroke-width: 1.2; stroke-linecap: square"/>
   </g>
   <g id="line2d_14">
    <path d="M 124.754184 90.789754 
L 124.468945 90.934232 
L 124.183706 91.065982 
L 123.898468 91.177373 
L 123.613229 91.256827 
L 123.32799 91.28773 
L 123.042751 91.248466 
L 122.757512 91.115672 
L 122.472274 90.873279 
L 122.187035 90.526978 
L 121.901796 90.115463 
L 121.616557 89.703947 
L 121.331318 89.357647 
L 121.04608 89.115253 
L 120.760841 88.98246 
L 120.475602 88.943196 
L 120.190363 88.974098 
L 119.905124 89.053552 
L 119.619886 89.164943 
L 119.334647 89.296693 
L 119.049408 89.441171 
L 118.764169 89.593513 
L 118.47893 89.750679 
L 118.193692 89.910791 
L 117.908453 90.072697 
L 117.623214 90.235694 
L 117.337975 90.399354 
L 117.052736 90.563416 
L 116.767498 90.727722 
L 116.482259 90.892176 
L 116.19702 91.05672 
L 115.911781 91.221319 
L 115.626542 91.385951 
L 115.341304 91.550603 
L 115.056065 91.715266 
L 114.770826 91.879938 
L 114.485587 92.044614 
L 114.200348 92.209292 
L 113.91511 92.373972 
L 113.629871 92.538653 
L 113.344632 92.703335 
L 113.059393 92.868017 
L 112.774154 93.0327 
L 112.488916 93.197382 
L 112.203677 93.362065 
" clip-path="url(#p0ea6c323c4)" style="fill: none; stroke: #4892ec; stroke-width: 1.2; stroke-linecap: square"/>
   </g>
   <g id="line2d_15">
    <path d="M 130.45896 40.475392 
L 130.173721 40.640075 
L 129.888482 40.804758 
L 129.603244 40.96944 
L 129.318005 41.134123 
L 129.032766 41.298806 
L 128.747527 41.463489 
L 128.462288 41.628171 
L 128.17705 41.792854 
L 127.891811 41.957537 
L 127.606572 42.122219 
L 127.321333 42.286902 
L 127.036094 42.451585 
L 126.750856 42.616267 
L 126.465617 42.78095 
L 126.180378 42.945633 
L 125.895139 43.110316 
L 125.6099 43.274998 
L 125.324662 43.439681 
L 125.039423 43.604364 
" clip-path="url(#p0ea6c323c4)" style="fill: none; stroke: #4892ec; stroke-width: 1.2; stroke-linecap: square"/>
   </g>
   <g id="line2d_16">
    <path d="M 130.45896 49.885832 
L 130.173721 50.050515 
L 129.888482 50.215198 
L 129.603244 50.37988 
L 129.318005 50.544563 
L 129.032766 50.709246 
L 128.747527 50.873928 
L 128.462288 51.038611 
L 128.17705 51.203294 
L 127.891811 51.367977 
L 127.606572 51.532659 
L 127.321333 51.697342 
L 127.036094 51.862025 
L 126.750856 52.026707 
L 126.465617 52.19139 
L 126.180378 52.356073 
L 125.895139 52.520755 
L 125.6099 52.685438 
L 125.324662 52.850121 
L 125.039423 53.014804 
" clip-path="url(#p0ea6c323c4)" style="fill: none; stroke: #4892ec; stroke-width: 1.2; stroke-linecap: square"/>
   </g>
   <g id="line2d_17">
    <path d="M 130.45896 59.296272 
L 130.173721 59.460955 
L 129.888482 59.625638 
L 129.603244 59.79032 
L 129.318005 59.955003 
L 129.032766 60.119686 
L 128.747527 60.284368 
L 128.462288 60.449051 
L 128.17705 60.613734 
L 127.891811 60.778416 
L 127.606572 60.943099 
L 127.321333 61.107782 
L 127.036094 61.272465 
L 126.750856 61.437147 
L 126.465617 61.60183 
L 126.180378 61.766513 
L 125.895139 61.931195 
L 125.6099 62.095878 
L 125.324662 62.260561 
L 125.039423 62.425243 
" clip-path="url(#p0ea6c323c4)" style="fill: none; stroke: #4892ec; stroke-width: 1.2; stroke-linecap: square"/>
   </g>
   <g id="line2d_18">
    <path d="M 130.45896 68.706712 
L 130.173721 68.871395 
L 129.888482 69.036077 
L 129.603244 69.20076 
L 129.318005 69.365443 
L 129.032766 69.530126 
L 128.747527 69.694808 
L 128.462288 69.859491 
L 128.17705 70.024174 
L 127.891811 70.188856 
L 127.606572 70.353539 
L 127.321333 70.518222 
L 127.036094 70.682904 
L 126.750856 70.847587 
L 126.465617 71.01227 
L 126.180378 71.176952 
L 125.895139 71.341635 
L 125.6099 71.506318 
L 125.324662 71.671001 
L 125.039423 71.835683 
" clip-path="url(#p0ea6c323c4)" style="fill: none; stroke: #4892ec; stroke-width: 1.2; stroke-linecap: square"/>
   </g>
   <g id="line2d_19">
    <path d="M 130.45896 78.117152 
L 130.173721 78.281835 
L 129.888482 78.446517 
L 129.603244 78.6112 
L 129.318005 78.775883 
L 129.032766 78.940565 
L 128.747527 79.105248 
L 128.462288 79.269931 
L 128.17705 79.434613 
L 127.891811 79.599296 
L 127.606572 79.763979 
L 127.321333 79.928662 
L 127.036094 80.093344 
L 126.750856 80.258027 
L 126.465617 80.42271 
L 126.180378 80.587392 
L 125.895139 80.752075 
L 125.6099 80.916758 
L 125.324662 81.08144 
L 125.039423 81.246123 
" clip-path="url(#p0ea6c323c4)" style="fill: none; stroke: #4892ec; stroke-width: 1.2; stroke-linecap: square"/>
   </g>
   <g id="line2d_20">
    <path d="M 130.45896 87.527592 
L 130.173721 87.692274 
L 129.888482 87.856957 
L 129.603244 88.02164 
L 129.318005 88.186323 
L 129.032766 88.351005 
L 128.747527 88.515688 
L 128.462288 88.680371 
L 128.17705 88.845053 
L 127.891811 89.009736 
L 127.606572 89.174419 
L 127.321333 89.339101 
L 127.036094 89.503784 
L 126.750856 89.668467 
L 126.465617 89.83315 
L 126.180378 89.997832 
L 125.895139 90.162515 
L 125.6099 90.327198 
L 125.324662 90.49188 
L 125.039423 90.656563 
" clip-path="url(#p0ea6c323c4)" style="fill: none; stroke: #4892ec; stroke-width: 1.2; stroke-linecap: square"/>
   </g>
   <g id="line2d_21">
    <path d="M 130.45896 96.938032 
L 130.173721 97.102714 
L 129.888482 97.267397 
L 129.603244 97.43208 
L 129.318005 97.596762 
L 129.032766 97.761445 
L 128.747527 97.926128 
L 128.462288 98.090811 
L 128.17705 98.255493 
L 127.891811 98.420176 
L 127.606572 98.584859 
L 127.321333 98.749541 
L 127.036094 98.914224 
L 126.750856 99.078907 
L 126.465617 99.243589 
L 126.180378 99.408272 
L 125.895139 99.572955 
L 125.6099 99.737638 
L 125.324662 99.90232 
L 125.039423 100.067003 
" clip-path="url(#p0ea6c323c4)" style="fill: none; stroke: #4892ec; stroke-width: 1.2; stroke-linecap: square"/>
   </g>
  </g>
 </g>
 <defs>
  <clipPath id="p0ea6c323c4">
   <rect x="1.44" y="1.44" width="141.12" height="141.12"/>
  </clipPath>
 </defs>
</svg>
