<?xml version="1.0" encoding="utf-8" standalone="no"?>
<!DOCTYPE svg PUBLIC "-//W3C//DTD SVG 1.1//EN"
  "http://www.w3.org/Graphics/SVG/1.1/DTD/svg11.dtd">
<svg xmlns:xlink="http://www.w3.org/1999/xlink" width="144pt" height="144pt" viewBox="0 0 144 144" xmlns="http://www.w3.org/2000/svg" version="1.1">
 <metadata>
  <rdf:RDF xmlns:dc="http://purl.org/dc/elements/1.1/" xmlns:cc="http://creativecommons.org/ns#" xmlns:rdf="http://www.w3.org/1999/02/22-rdf-syntax-ns#">
   <cc:Work>
    <dc:type rdf:resource="http://purl.org/dc/dcmitype/StillImage"/>
    <dc:date>2023-12-09T00:22:08.017127</dc:date>
    <dc:format>image/svg+xml</dc:format>
    <dc:creator>
     <cc:Agent>
      <dc:title>Matplotlib v3.8.2, https://matplotlib.org/</dc:title>
     </cc:Agent>
    </dc:creator>
   </cc:Work>
  </rdf:RDF>
 </metadata>
 <defs>
  <style type="text/css">*{stroke-linejoin: round; stroke-linecap: butt}</style>
 </defs>
 <g id="figure_1">
  <g id="patch_1">
   <path d="M 0 144 
L 144 144 
L 144 0 
L 0 0 
L 0 144 
z
" style="fill: none"/>
  </g>
  <g id="axes_1">
   <g id="patch_2">
    <path d="M 1.44 142.56 
L 142.56 142.56 
L 142.56 1.44 
L 1.44 1.44 
L 1.44 142.56 
z
" style="fill: none"/>
   </g>
   <g id="line2d_1">
    <path d="M 130.45896 100.198416 
L 130.45896 37.65226 
L 130.45896 37.65226 
L 73.4112 4.715721 
L 73.4112 4.715721 
L 16.36344 37.65226 
L 16.36344 37.65226 
L 16.36344 103.52534 
L 16.36344 103.52534 
L 73.4112 136.461879 
L 73.4112 136.461879 
L 130.45896 103.52534 
L 130.45896 97.536878 
L 130.45896 97.536878 
" clip-path="url(#p2d806e24db)" style="fill: none; stroke: #4892ec; stroke-width: 2.4; stroke-linecap: square"/>
   </g>
   <g id="patch_3">
    <path d="M 96.939666 116.290405 
L 97.256598 116.107424 
L 97.57353 115.924443 
L 97.890462 115.741463 
L 98.207394 115.558482 
L 98.524326 115.375501 
L 98.841258 115.19252 
L 99.15819 115.009539 
L 99.475122 114.826559 
L 99.792054 114.643578 
L 99.792054 114.643578 
L 100.081365 114.475792 
L 100.370675 114.304888 
L 100.659986 114.12832 
L 100.949296 113.946403 
L 101.238607 113.764259 
L 101.527917 113.591136 
L 101.817227 113.436132 
L 102.106538 113.301871 
L 102.395848 113.180916 
L 102.685159 113.05907 
L 102.974469 112.92565 
L 103.26378 112.780332 
L 103.55309 112.628453 
L 103.8424 112.468909 
L 104.131711 112.287783 
L 104.421021 112.065728 
L 104.710332 111.791381 
L 104.999642 111.471942 
L 105.288953 111.136611 
L 105.578263 110.832526 
L 105.867573 110.610634 
L 106.156884 110.502399 
L 106.446194 110.499543 
L 106.735505 110.554768 
L 107.024815 110.607631 
L 107.314126 110.619205 
L 107.603436 110.589791 
L 107.892746 110.54638 
L 108.182057 110.51037 
L 108.471367 110.472422 
L 108.760678 110.391369 
L 109.049988 110.213407 
L 109.339299 109.899681 
L 109.628609 109.450516 
L 109.917919 108.920933 
L 110.20723 108.412174 
L 110.49654 108.026744 
L 110.785851 107.804777 
L 111.075161 107.693933 
L 111.364472 107.585627 
L 111.653782 107.38862 
L 111.943092 107.074456 
L 112.232403 106.670785 
L 112.521713 106.235829 
L 112.811024 105.84911 
L 113.100334 105.604026 
L 113.389645 105.573524 
L 113.678955 105.756821 
L 113.968266 106.052541 
L 114.257576 106.286725 
L 114.546886 106.289057 
L 114.836197 105.975262 
L 115.125507 105.390106 
L 115.414818 104.683825 
L 115.704128 104.034202 
L 115.993439 103.561647 
L 116.282749 103.287298 
L 116.572059 103.1523 
L 116.86137 103.069152 
L 117.15068 102.960811 
L 117.439991 102.768245 
L 117.729301 102.451767 
L 118.018612 102.022123 
L 118.307922 101.586323 
L 118.597232 101.339898 
L 118.886543 101.46156 
L 119.175853 101.966656 
L 119.465164 102.655378 
L 119.754474 103.233442 
L 120.043785 103.512347 
L 120.333095 103.507476 
L 120.622405 103.348793 
L 120.911716 103.119156 
L 121.201026 102.794646 
L 121.490337 102.330605 
L 121.779647 101.76841 
L 122.068958 101.233581 
L 122.358268 100.836924 
L 122.647578 100.596352 
L 122.936889 100.453324 
L 123.226199 100.340357 
L 123.51551 100.21696 
L 123.80482 100.046272 
L 124.094131 99.767934 
L 124.383441 99.326484 
L 124.672751 98.745257 
L 124.962062 98.166988 
L 125.251372 97.797446 
L 125.540683 97.776849 
L 125.829993 98.078494 
L 126.119304 98.528346 
L 126.408614 98.921954 
L 126.697924 99.135977 
L 126.987235 99.144103 
L 127.276545 98.959582 
L 127.565856 98.588302 
L 127.855166 98.044805 
L 128.144477 97.40219 
L 128.433787 96.809389 
L 128.723097 96.436874 
L 129.012408 96.384903 
L 129.301718 96.627417 
L 129.591029 97.033937 
L 129.880339 97.445403 
L 130.16965 97.732508 
L 130.45896 97.812953 
" clip-path="url(#p0552fde79e)" style="fill: none; stroke: #4892ec; stroke-width: 0.9; stroke-linejoin: miter"/>
   </g>
   <g id="patch_4">
    <path d="M 86.154423 113.106828 
L 91.885433 109.675726 
L 93.324743 108.459925 
L 93.900468 108.202077 
L 95.339778 107.992405 
L 96.491227 107.157872 
L 97.354813 106.506502 
L 99.369848 104.592739 
L 99.945573 104.52136 
L 100.521297 104.514522 
L 100.809159 104.368933 
L 101.960608 103.18705 
L 102.24847 103.294454 
L 103.399918 104.309978 
L 103.68778 104.191001 
L 103.975643 103.827252 
L 104.551367 102.568287 
L 105.127091 101.245692 
L 105.702815 100.53065 
L 106.27854 100.171253 
L 107.429988 98.94112 
L 107.717851 98.921598 
L 108.293575 99.175137 
L 108.869299 99.519028 
L 109.157161 99.543696 
L 109.445023 99.356773 
L 110.596472 97.878519 
L 111.172196 97.351481 
L 111.747921 96.217476 
L 112.611507 94.123032 
L 112.899369 93.955538 
L 113.187231 94.163901 
L 113.762956 94.865658 
L 114.050818 94.899405 
L 114.914404 94.272012 
L 115.202266 94.449049 
L 115.490128 95.013992 
L 116.065853 97.250844 
L 116.641577 99.466509 
L 116.929439 99.678006 
L 117.217301 99.128851 
L 118.080888 96.118541 
L 119.232336 93.908457 
L 119.808061 91.682464 
L 120.671647 88.356989 
L 120.959509 87.837003 
L 121.247371 87.766639 
L 121.535233 88.10438 
L 122.110958 89.479602 
L 122.686682 90.961139 
L 122.974544 91.410625 
L 123.262406 91.438033 
L 123.550269 90.986133 
L 124.125993 89.576227 
L 124.413855 89.46879 
L 124.701717 90.163848 
L 125.565304 94.359136 
L 125.853166 94.885003 
L 126.141028 94.717262 
L 127.580339 91.821268 
L 128.443925 88.779355 
L 128.731787 88.460518 
L 129.019649 88.786211 
L 129.595374 90.147399 
L 129.883236 90.396253 
L 130.171098 90.226539 
L 130.45896 89.916992 
L 130.45896 89.916992 
" clip-path="url(#p0552fde79e)" style="fill: none; stroke: #4892ec; stroke-width: 0.9; stroke-linejoin: miter"/>
   </g>
   <g id="patch_5">
    <path d="M 89.762982 101.612986 
L 95.215311 98.375994 
L 97.237488 96.910648 
L 97.815253 96.857997 
L 98.393017 96.824799 
L 98.970782 96.426726 
L 100.126312 95.50316 
L 100.992959 94.981041 
L 102.726253 94.506658 
L 103.881782 93.585342 
L 105.037312 92.484107 
L 105.326194 92.439269 
L 106.192841 92.626375 
L 106.481724 92.433683 
L 107.637253 90.803137 
L 108.215018 89.802792 
L 109.370547 87.356712 
L 109.65943 87.256368 
L 109.948312 87.568881 
L 111.103841 90.284464 
L 111.392724 90.361184 
L 111.681606 90.073556 
L 112.259371 88.805079 
L 113.126018 86.734283 
L 113.703783 85.852198 
L 113.992665 85.672931 
L 114.281548 85.738917 
L 114.57043 86.08639 
L 114.859312 86.745426 
L 115.437077 89.1003 
L 116.014842 92.043038 
L 116.303724 92.844369 
L 116.592606 92.720847 
L 116.881489 91.664108 
L 117.748136 86.840083 
L 118.037018 85.914442 
L 118.325901 85.41996 
L 119.192548 84.655602 
L 120.348077 82.941198 
L 120.63696 82.992838 
L 121.214724 83.797284 
L 121.792489 84.620356 
L 122.370254 84.951468 
L 122.659136 84.923132 
L 122.948018 84.756705 
L 123.525783 84.044485 
L 124.103548 83.28745 
L 124.970195 82.807415 
L 125.259077 82.329449 
L 125.836842 80.452661 
L 126.703489 76.790658 
L 126.992372 76.120179 
L 127.281254 76.111644 
L 127.570136 76.739694 
L 128.436783 79.431104 
L 129.014548 80.231706 
L 129.303431 80.335225 
L 129.592313 80.201622 
L 130.45896 79.107431 
L 130.45896 79.107431 
" clip-path="url(#p0552fde79e)" style="fill: none; stroke: #4892ec; stroke-width: 0.9; stroke-linejoin: miter"/>
   </g>
   <g id="patch_6">
    <path d="M 86.672186 93.987018 
L 92.119007 90.721096 
L 92.983818 90.122719 
L 93.560358 89.881082 
L 94.425169 89.721004 
L 94.71344 89.545918 
L 95.28998 88.805592 
L 95.866521 88.056777 
L 96.154791 87.961657 
L 96.443062 88.098041 
L 97.019602 88.609961 
L 97.307873 88.6861 
L 97.596143 88.557939 
L 98.172684 87.919443 
L 99.902306 85.724814 
L 100.767117 85.163576 
L 101.343657 84.40146 
L 102.208468 83.240868 
L 103.64982 82.120664 
L 103.93809 82.157209 
L 104.514631 82.832645 
L 104.802901 83.19164 
L 105.091171 83.3449 
L 105.379442 83.246786 
L 105.955982 82.55364 
L 107.109064 80.789297 
L 107.397334 80.552868 
L 107.685604 80.501105 
L 107.973875 80.636125 
L 109.415226 81.922438 
L 109.703497 81.871603 
L 109.991767 81.620574 
L 110.568308 80.468383 
L 112.009659 76.838156 
L 112.29793 76.490357 
L 112.5862 76.389221 
L 112.87447 76.489788 
L 113.451011 77.021619 
L 113.739281 77.495181 
L 114.315822 79.134169 
L 114.892362 80.635889 
L 115.180633 80.7327 
L 115.468903 80.343543 
L 116.045444 78.623987 
L 116.621984 75.926852 
L 117.486795 71.593033 
L 117.775066 71.098588 
L 118.063336 71.311901 
L 118.639877 73.141348 
L 119.792958 77.252006 
L 120.369499 79.017332 
L 120.657769 79.636333 
L 120.946039 79.958595 
L 121.23431 79.92907 
L 121.52258 79.547145 
L 122.099121 78.009202 
L 124.405283 70.490847 
L 124.693554 70.112078 
L 124.981824 70.296151 
L 125.846635 71.861086 
L 126.134905 71.601938 
L 126.423175 70.718713 
L 127.576257 65.476373 
L 128.152797 63.84499 
L 128.729338 62.739379 
L 129.305879 62.104904 
L 129.594149 61.533432 
L 130.45896 58.884362 
L 130.45896 58.884362 
" clip-path="url(#p0552fde79e)" style="fill: none; stroke: #4892ec; stroke-width: 0.9; stroke-linejoin: miter"/>
   </g>
   <g id="patch_7">
    <path d="M 83.074036 86.653971 
L 87.075651 84.44459 
L 89.374104 83.505742 
L 90.523331 82.509031 
L 91.672558 81.978562 
L 92.534478 80.997439 
L 93.683705 79.83283 
L 95.120238 78.345226 
L 95.407545 78.255799 
L 95.982158 78.483969 
L 96.269465 78.582837 
L 96.556771 78.489769 
L 97.131385 77.692947 
L 97.705998 76.848938 
L 97.993305 76.657537 
L 98.567918 76.610257 
L 100.004452 76.605769 
L 100.579065 76.153579 
L 100.866372 75.874837 
L 101.153678 75.776889 
L 101.440985 75.958859 
L 102.015598 76.689173 
L 102.302905 76.707338 
L 102.590212 76.229879 
L 103.164825 74.148186 
L 103.739439 72.255888 
L 104.026745 71.836995 
L 104.314052 71.794975 
L 104.601359 72.064582 
L 105.175972 73.212122 
L 106.037892 75.127032 
L 106.325199 75.369116 
L 106.612505 75.256116 
L 106.899812 74.788569 
L 107.474425 73.121473 
L 108.049039 71.442435 
L 108.336345 71.077772 
L 108.623652 71.206949 
L 109.485572 72.829947 
L 109.772879 72.869903 
L 110.347492 72.112927 
L 111.496719 70.278758 
L 112.358639 68.223808 
L 112.645946 68.028944 
L 112.933252 68.248917 
L 113.795172 69.845037 
L 114.082479 69.954998 
L 114.369786 69.735225 
L 115.231706 68.590384 
L 116.093626 67.903221 
L 116.955546 66.65962 
L 117.242853 66.592558 
L 117.530159 66.931338 
L 118.392079 69.079291 
L 118.679386 69.144695 
L 118.966693 68.364866 
L 119.541306 64.52372 
L 120.115919 60.708151 
L 120.403226 59.976877 
L 120.690533 60.137162 
L 120.977839 60.95558 
L 121.552453 63.642553 
L 122.70168 69.779341 
L 122.988986 70.027334 
L 123.276293 69.376348 
L 124.42552 64.343797 
L 124.712826 64.054934 
L 125.28744 64.15368 
L 125.574746 63.902417 
L 126.14936 62.424445 
L 126.723973 60.910038 
L 127.298586 60.05556 
L 127.8732 59.660965 
L 128.160507 59.488275 
L 128.447813 59.10451 
L 129.022427 57.314187 
L 129.59704 55.55727 
L 129.884347 55.275517 
L 130.45896 55.269905 
L 130.45896 55.269905 
" clip-path="url(#p0552fde79e)" style="fill: none; stroke: #4892ec; stroke-width: 0.9; stroke-linejoin: miter"/>
   </g>
   <g id="patch_8">
    <path d="M 91.959351 72.113592 
L 97.999702 68.509315 
L 98.869146 67.961506 
L 99.448776 67.843227 
L 100.89785 67.767439 
L 101.477479 67.049233 
L 102.346924 65.695776 
L 102.636738 65.50957 
L 103.216368 65.561878 
L 103.795998 65.697667 
L 104.375627 65.511216 
L 104.955257 64.974415 
L 105.534887 64.039824 
L 106.694146 61.591065 
L 106.983961 61.399215 
L 107.273775 61.582959 
L 107.853405 62.830489 
L 108.433035 64.206371 
L 108.722849 64.580046 
L 109.012664 64.643381 
L 109.302479 64.41962 
L 110.751553 62.265759 
L 112.490442 58.987823 
L 112.780257 58.811164 
L 113.070072 58.909771 
L 114.229331 60.276937 
L 114.519146 60.139222 
L 115.96822 58.338045 
L 116.258034 58.304946 
L 116.547849 58.443693 
L 117.127479 58.963532 
L 117.417294 59.018473 
L 117.707108 58.707223 
L 118.286738 57.004213 
L 118.866368 55.390843 
L 119.156182 55.255164 
L 119.445997 55.623094 
L 120.315442 57.648136 
L 120.605257 57.914462 
L 120.895071 57.837284 
L 121.474701 56.979836 
L 122.054331 56.260048 
L 122.344145 56.244252 
L 122.923775 56.447766 
L 123.21359 56.349391 
L 123.503405 56.031677 
L 124.083034 54.822885 
L 124.952479 52.556669 
L 125.532108 51.794077 
L 126.401553 51.200211 
L 126.691367 51.176647 
L 126.981182 51.363614 
L 127.560812 52.016521 
L 127.850627 52.030609 
L 128.140442 51.579452 
L 129.009886 48.760992 
L 129.299701 48.437164 
L 129.589516 48.747184 
L 130.45896 50.668973 
L 130.45896 50.668973 
" clip-path="url(#p0552fde79e)" style="fill: none; stroke: #4892ec; stroke-width: 0.9; stroke-linejoin: miter"/>
   </g>
   <g id="patch_9">
    <path d="M 84.460001 67.032904 
L 89.325896 64.335925 
L 90.188827 63.902359 
L 93.352909 61.653529 
L 94.791128 60.22779 
L 95.366416 60.055799 
L 96.804635 59.763023 
L 97.379922 59.259922 
L 97.95521 58.369679 
L 98.818142 56.71466 
L 99.105785 56.452503 
L 99.393429 56.490428 
L 99.968717 57.250452 
L 100.544004 58.07994 
L 100.831648 58.309166 
L 101.119292 58.391767 
L 101.406936 58.320854 
L 101.69458 58.085737 
L 102.269867 57.194809 
L 103.99573 54.117275 
L 104.283374 53.789829 
L 104.571018 53.645674 
L 105.433949 53.6621 
L 106.29688 53.182439 
L 106.584524 53.224658 
L 107.447456 53.74044 
L 108.310387 53.392379 
L 108.598031 53.594205 
L 109.173318 54.812969 
L 109.748606 55.910607 
L 110.03625 56.028956 
L 110.323894 55.892256 
L 110.899181 55.289322 
L 111.474469 54.300872 
L 112.049757 52.483471 
L 112.912688 49.54824 
L 113.775619 47.642911 
L 114.350907 46.743823 
L 114.638551 46.574988 
L 114.926195 46.600333 
L 116.364414 47.379521 
L 116.939701 48.019162 
L 117.227345 48.12739 
L 117.514989 47.926618 
L 118.090276 47.04565 
L 118.37792 46.85206 
L 118.665564 47.003948 
L 119.240852 47.655462 
L 119.528495 47.592432 
L 119.816139 47.083051 
L 120.391427 45.48433 
L 120.679071 45.04564 
L 120.966714 45.092054 
L 121.542002 45.782482 
L 121.829646 45.681035 
L 122.11729 45.015271 
L 123.267865 40.992674 
L 123.555509 40.5006 
L 123.843152 40.279168 
L 124.130796 40.406963 
L 124.41844 40.913335 
L 124.993728 42.343646 
L 125.281372 42.753039 
L 125.569015 42.845431 
L 126.144303 42.51215 
L 127.007234 41.568584 
L 127.582522 40.706712 
L 128.733097 38.190518 
L 129.020741 38.667839 
L 129.308385 40.006168 
L 130.45896 47.512143 
L 130.45896 47.512143 
" clip-path="url(#p0552fde79e)" style="fill: none; stroke: #4892ec; stroke-width: 0.9; stroke-linejoin: miter"/>
   </g>
   <g id="line2d_2">
    <path d="M 73.4112 73.411932 
L 73.709816 73.239526 
L 74.008433 73.06712 
L 74.307049 72.894713 
L 74.605665 72.722307 
L 74.904281 72.549901 
L 75.202898 72.377495 
L 75.501514 72.205089 
L 75.80013 72.032683 
L 76.098746 71.860276 
L 76.397363 71.68787 
L 76.695979 71.515464 
L 76.994595 71.343058 
L 77.293211 71.170652 
L 77.591828 70.998246 
L 77.890444 70.825839 
L 78.18906 70.653433 
L 78.487676 70.481027 
L 78.786293 70.308621 
L 79.084909 70.136215 
L 79.383525 69.963808 
L 79.682141 69.791402 
L 79.980758 69.618996 
L 80.279374 69.44659 
L 80.57799 69.274184 
L 80.876606 69.101778 
L 81.175223 68.929371 
L 81.473839 68.756965 
L 81.772455 68.584559 
L 82.071071 68.412153 
L 82.369688 68.239747 
L 82.668304 68.067341 
L 82.96692 67.894934 
L 83.265536 67.722528 
L 83.564153 67.550122 
L 83.862769 67.377716 
L 84.161385 67.20531 
L 84.460001 67.032904 
" clip-path="url(#p2d806e24db)" style="fill: none; stroke-dasharray: 0.9,1.485; stroke-dashoffset: 0; stroke: #4892ec; stroke-width: 0.9"/>
   </g>
   <g id="matplotlib.axis_1"/>
   <g id="matplotlib.axis_2"/>
   <g id="line2d_3">
    <path d="M 73.4112 82.822372 
L 73.701015 82.655047 
L 73.99083 82.487722 
L 74.280645 82.320398 
L 74.570459 82.153073 
L 74.860274 81.985748 
L 75.150089 81.818424 
L 75.439904 81.651099 
L 75.729719 81.483774 
L 76.019534 81.31645 
L 76.309349 81.149125 
L 76.599163 80.9818 
L 76.888978 80.814476 
L 77.178793 80.647151 
L 77.468608 80.479826 
L 77.758423 80.312502 
L 78.048238 80.145177 
L 78.338053 79.977852 
L 78.627867 79.810528 
L 78.917682 79.643203 
L 79.207497 79.475878 
L 79.497312 79.308553 
L 79.787127 79.141229 
L 80.076942 78.973904 
L 80.366756 78.806579 
L 80.656571 78.639255 
L 80.946386 78.47193 
L 81.236201 78.304605 
L 81.526016 78.137281 
L 81.815831 77.969956 
L 82.105646 77.802631 
L 82.39546 77.635307 
L 82.685275 77.467982 
L 82.97509 77.300657 
L 83.264905 77.133333 
L 83.55472 76.966008 
L 83.844535 76.798683 
L 84.13435 76.631359 
L 84.424164 76.464034 
L 84.713979 76.296709 
L 85.003794 76.129385 
L 85.293609 75.96206 
L 85.583424 75.794735 
L 85.873239 75.62741 
L 86.163054 75.460086 
L 86.452868 75.292761 
L 86.742683 75.125436 
L 87.032498 74.958112 
L 87.322313 74.790787 
L 87.612128 74.623462 
L 87.901943 74.456138 
L 88.191758 74.288813 
L 88.481572 74.121488 
L 88.771387 73.954164 
L 89.061202 73.786839 
L 89.351017 73.619514 
L 89.640832 73.45219 
L 89.930647 73.284865 
L 90.220462 73.11754 
L 90.510276 72.950216 
L 90.800091 72.782891 
L 91.089906 72.615566 
L 91.379721 72.448241 
L 91.669536 72.280917 
L 91.959351 72.113592 
" clip-path="url(#p2d806e24db)" style="fill: none; stroke-dasharray: 0.9,1.485; stroke-dashoffset: 0; stroke: #4892ec; stroke-width: 0.9"/>
   </g>
   <g id="line2d_4">
    <path d="M 73.4112 92.232812 
L 73.713164 92.058473 
L 74.015127 91.884134 
L 74.317091 91.709795 
L 74.619055 91.535457 
L 74.921018 91.361118 
L 75.222982 91.186779 
L 75.524945 91.01244 
L 75.826909 90.838101 
L 76.128873 90.663763 
L 76.430836 90.489424 
L 76.7328 90.315085 
L 77.034764 90.140746 
L 77.336727 89.966408 
L 77.638691 89.792069 
L 77.940654 89.61773 
L 78.242618 89.443391 
L 78.544582 89.269052 
L 78.846545 89.094714 
L 79.148509 88.920375 
L 79.450473 88.746036 
L 79.752436 88.571697 
L 80.0544 88.397358 
L 80.356364 88.22302 
L 80.658327 88.048681 
L 80.960291 87.874342 
L 81.262254 87.700003 
L 81.564218 87.525665 
L 81.866182 87.351326 
L 82.168145 87.176987 
L 82.470109 87.002648 
L 82.772073 86.828309 
L 83.074036 86.653971 
" clip-path="url(#p2d806e24db)" style="fill: none; stroke-dasharray: 0.9,1.485; stroke-dashoffset: 0; stroke: #4892ec; stroke-width: 0.9"/>
   </g>
   <g id="line2d_5">
    <path d="M 73.4112 101.643252 
L 73.705889 101.473113 
L 74.000577 101.302975 
L 74.295266 101.132836 
L 74.589954 100.962698 
L 74.884643 100.792559 
L 75.179331 100.62242 
L 75.47402 100.452282 
L 75.768709 100.282143 
L 76.063397 100.112005 
L 76.358086 99.941866 
L 76.652774 99.771728 
L 76.947463 99.601589 
L 77.242151 99.431451 
L 77.53684 99.261312 
L 77.831529 99.091174 
L 78.126217 98.921035 
L 78.420906 98.750897 
L 78.715594 98.580758 
L 79.010283 98.41062 
L 79.304972 98.240481 
L 79.59966 98.070343 
L 79.894349 97.900204 
L 80.189037 97.730065 
L 80.483726 97.559927 
L 80.778414 97.389788 
L 81.073103 97.21965 
L 81.367792 97.049511 
L 81.66248 96.879373 
L 81.957169 96.709234 
L 82.251857 96.539096 
L 82.546546 96.368957 
L 82.841234 96.198819 
L 83.135923 96.02868 
L 83.430612 95.858542 
L 83.7253 95.688403 
L 84.019989 95.518265 
L 84.314677 95.348126 
L 84.609366 95.177988 
L 84.904054 95.007849 
L 85.198743 94.83771 
L 85.493432 94.667572 
L 85.78812 94.497433 
L 86.082809 94.327295 
L 86.377497 94.157156 
L 86.672186 93.987018 
" clip-path="url(#p2d806e24db)" style="fill: none; stroke-dasharray: 0.9,1.485; stroke-dashoffset: 0; stroke: #4892ec; stroke-width: 0.9"/>
   </g>
   <g id="line2d_6">
    <path d="M 73.4112 111.053691 
L 73.703196 110.885107 
L 73.995192 110.716523 
L 74.287188 110.547939 
L 74.579184 110.379355 
L 74.871181 110.210771 
L 75.163177 110.042187 
L 75.455173 109.873603 
L 75.747169 109.705019 
L 76.039165 109.536435 
L 76.331161 109.367851 
L 76.623157 109.199267 
L 76.915153 109.030683 
L 77.207149 108.862099 
L 77.499146 108.693515 
L 77.791142 108.524931 
L 78.083138 108.356347 
L 78.375134 108.187763 
L 78.66713 108.019179 
L 78.959126 107.850595 
L 79.251122 107.682011 
L 79.543118 107.513427 
L 79.835114 107.344843 
L 80.12711 107.176259 
L 80.419107 107.007675 
L 80.711103 106.839091 
L 81.003099 106.670507 
L 81.295095 106.501923 
L 81.587091 106.333339 
L 81.879087 106.164755 
L 82.171083 105.996171 
L 82.463079 105.827587 
L 82.755075 105.659002 
L 83.047072 105.490418 
L 83.339068 105.321834 
L 83.631064 105.15325 
L 83.92306 104.984666 
L 84.215056 104.816082 
L 84.507052 104.647498 
L 84.799048 104.478914 
L 85.091044 104.31033 
L 85.38304 104.141746 
L 85.675037 103.973162 
L 85.967033 103.804578 
L 86.259029 103.635994 
L 86.551025 103.46741 
L 86.843021 103.298826 
L 87.135017 103.130242 
L 87.427013 102.961658 
L 87.719009 102.793074 
L 88.011005 102.62449 
L 88.303002 102.455906 
L 88.594998 102.287322 
L 88.886994 102.118738 
L 89.17899 101.950154 
L 89.470986 101.78157 
L 89.762982 101.612986 
" clip-path="url(#p2d806e24db)" style="fill: none; stroke-dasharray: 0.9,1.485; stroke-dashoffset: 0; stroke: #4892ec; stroke-width: 0.9"/>
   </g>
   <g id="line2d_7">
    <path d="M 73.4112 120.464131 
L 73.707554 120.293031 
L 74.003908 120.121931 
L 74.300262 119.950831 
L 74.596616 119.779731 
L 74.89297 119.608631 
L 75.189324 119.437531 
L 75.485678 119.266431 
L 75.782032 119.095331 
L 76.078386 118.924231 
L 76.37474 118.753131 
L 76.671094 118.582031 
L 76.967448 118.41093 
L 77.263802 118.23983 
L 77.560156 118.06873 
L 77.85651 117.89763 
L 78.152864 117.72653 
L 78.449218 117.55543 
L 78.745572 117.38433 
L 79.041926 117.21323 
L 79.33828 117.04213 
L 79.634635 116.87103 
L 79.930989 116.69993 
L 80.227343 116.52883 
L 80.523697 116.35773 
L 80.820051 116.186629 
L 81.116405 116.015529 
L 81.412759 115.844429 
L 81.709113 115.673329 
L 82.005467 115.502229 
L 82.301821 115.331129 
L 82.598175 115.160029 
L 82.894529 114.988929 
L 83.190883 114.817829 
L 83.487237 114.646729 
L 83.783591 114.475629 
L 84.079945 114.304529 
L 84.376299 114.133429 
L 84.672653 113.962329 
L 84.969007 113.791228 
L 85.265361 113.620128 
L 85.561715 113.449028 
L 85.858069 113.277928 
L 86.154423 113.106828 
" clip-path="url(#p2d806e24db)" style="fill: none; stroke-dasharray: 0.9,1.485; stroke-dashoffset: 0; stroke: #4892ec; stroke-width: 0.9"/>
   </g>
   <g id="line2d_8">
    <path d="M 73.4112 129.874571 
L 73.701675 129.706866 
L 73.99215 129.53916 
L 74.282625 129.371454 
L 74.5731 129.203748 
L 74.863574 129.036042 
L 75.154049 128.868337 
L 75.444524 128.700631 
L 75.734999 128.532925 
L 76.025474 128.365219 
L 76.315949 128.197514 
L 76.606424 128.029808 
L 76.896899 127.862102 
L 77.187374 127.694396 
L 77.477849 127.526691 
L 77.768323 127.358985 
L 78.058798 127.191279 
L 78.349273 127.023573 
L 78.639748 126.855868 
L 78.930223 126.688162 
L 79.220698 126.520456 
L 79.511173 126.35275 
L 79.801648 126.185045 
L 80.092123 126.017339 
L 80.382597 125.849633 
L 80.673072 125.681927 
L 80.963547 125.514222 
L 81.254022 125.346516 
L 81.544497 125.17881 
L 81.834972 125.011104 
L 82.125447 124.843399 
L 82.415922 124.675693 
L 82.706397 124.507987 
L 82.996872 124.340281 
L 83.287346 124.172575 
L 83.577821 124.00487 
L 83.868296 123.837164 
L 84.158771 123.669458 
L 84.449246 123.501752 
L 84.739721 123.334047 
L 85.030196 123.166341 
L 85.320671 122.998635 
L 85.611146 122.830929 
L 85.90162 122.663224 
L 86.192095 122.495518 
L 86.48257 122.327812 
L 86.773045 122.160106 
L 87.06352 121.992401 
L 87.353995 121.824695 
L 87.64447 121.656989 
L 87.934945 121.489283 
L 88.22542 121.321578 
L 88.515895 121.153872 
L 88.806369 120.986166 
L 89.096844 120.81846 
L 89.387319 120.650755 
L 89.677794 120.483049 
L 89.968269 120.315343 
L 90.258744 120.147637 
L 90.549219 119.979932 
L 90.839694 119.812226 
L 91.130169 119.64452 
L 91.420643 119.476814 
L 91.711118 119.309108 
L 92.001593 119.141403 
L 92.292068 118.973697 
L 92.582543 118.805991 
L 92.873018 118.638285 
L 93.163493 118.47058 
L 93.453968 118.302874 
L 93.744443 118.135168 
L 94.034918 117.967462 
L 94.325392 117.799757 
L 94.615867 117.632051 
L 94.906342 117.464345 
L 95.196817 117.296639 
L 95.487292 117.128934 
L 95.777767 116.961228 
L 96.068242 116.793522 
L 96.358717 116.625816 
L 96.649192 116.458111 
L 96.939666 116.290405 
" clip-path="url(#p2d806e24db)" style="fill: none; stroke-dasharray: 0.9,1.485; stroke-dashoffset: 0; stroke: #4892ec; stroke-width: 0.9"/>
   </g>
  </g>
 </g>
 <defs>
  <clipPath id="p2d806e24db">
   <rect x="1.44" y="1.44" width="141.12" height="141.12"/>
  </clipPath>
  <clipPath id="p0552fde79e">
   <path d="M 73.4112 136.461879 
L 130.45896 103.52534 
L 130.45896 37.65226 
L 73.4112 70.5888 
L 73.4112 136.461879 
"/>
  </clipPath>
 </defs>
</svg>
