<?xml version="1.0" encoding="utf-8" standalone="no"?>
<!DOCTYPE svg PUBLIC "-//W3C//DTD SVG 1.1//EN"
  "http://www.w3.org/Graphics/SVG/1.1/DTD/svg11.dtd">
<svg xmlns:xlink="http://www.w3.org/1999/xlink" width="144pt" height="144pt" viewBox="0 0 144 144" xmlns="http://www.w3.org/2000/svg" version="1.1">
 <metadata>
  <rdf:RDF xmlns:dc="http://purl.org/dc/elements/1.1/" xmlns:cc="http://creativecommons.org/ns#" xmlns:rdf="http://www.w3.org/1999/02/22-rdf-syntax-ns#">
   <cc:Work>
    <dc:type rdf:resource="http://purl.org/dc/dcmitype/StillImage"/>
    <dc:date>2023-12-11T12:43:07.418070</dc:date>
    <dc:format>image/svg+xml</dc:format>
    <dc:creator>
     <cc:Agent>
      <dc:title>Matplotlib v3.8.2, https://matplotlib.org/</dc:title>
     </cc:Agent>
    </dc:creator>
   </cc:Work>
  </rdf:RDF>
 </metadata>
 <defs>
  <style type="text/css">*{stroke-linejoin: round; stroke-linecap: butt}</style>
 </defs>
 <g id="figure_1">
  <g id="patch_1">
   <path d="M 0 144 
L 144 144 
L 144 0 
L 0 0 
L 0 144 
z
" style="fill: none"/>
  </g>
  <g id="axes_1">
   <g id="patch_2">
    <path d="M 1.44 142.56 
L 142.56 142.56 
L 142.56 1.44 
L 1.44 1.44 
L 1.44 142.56 
z
" style="fill: none"/>
   </g>
   <g id="line2d_1">
    <path d="M 130.45896 100.198416 
L 130.45896 37.65226 
L 130.45896 37.65226 
L 73.4112 4.715721 
L 73.4112 4.715721 
L 16.36344 37.65226 
L 16.36344 37.65226 
L 16.36344 103.52534 
L 16.36344 103.52534 
L 73.4112 136.461879 
L 73.4112 136.461879 
L 130.45896 103.52534 
L 130.45896 97.536878 
L 130.45896 97.536878 
" clip-path="url(#p5ee663c1c0)" style="fill: none; stroke: #4892ec; stroke-width: 2.4; stroke-linecap: square"/>
   </g>
   <g id="patch_3">
    <path d="M 90.190244 120.187186 
L 90.507176 120.004205 
L 90.824108 119.821224 
L 91.14104 119.638243 
L 91.457972 119.455263 
L 91.774904 119.272282 
L 92.091836 119.089301 
L 92.408768 118.90632 
L 92.7257 118.72334 
L 93.042632 118.540359 
L 93.042632 118.540359 
L 94.24961 117.897901 
L 95.456589 117.341788 
L 96.663567 116.91434 
L 97.870545 116.635245 
L 99.077524 116.481239 
L 100.284502 116.388516 
L 101.49148 116.274393 
L 102.698459 116.058992 
L 103.905437 115.683742 
L 105.112415 115.104798 
L 106.319394 114.272638 
L 107.526372 113.133169 
L 108.73335 111.705985 
L 109.940329 110.202555 
L 111.147307 109.02756 
L 112.354285 108.56819 
L 113.561263 108.893268 
L 114.768242 109.61548 
L 115.97522 110.05053 
L 117.182198 109.584672 
L 118.389177 108.021607 
L 119.596155 105.706221 
L 120.803133 103.324869 
L 122.010112 101.492857 
L 123.21709 100.429472 
L 124.424068 99.946451 
L 125.631047 99.715877 
L 126.838025 99.526083 
L 128.045003 99.317398 
L 129.251982 99.048549 
L 130.45896 98.617594 
" clip-path="url(#p0a5cf46da1)" style="fill: none; stroke: #4892ec; stroke-width: 0.9; stroke-linejoin: miter"/>
   </g>
   <g id="patch_4">
    <path d="M 87.096572 112.562878 
L 87.413504 112.379897 
L 87.730436 112.196917 
L 88.047368 112.013936 
L 88.3643 111.830955 
L 88.681232 111.647974 
L 88.998164 111.464994 
L 89.315096 111.282013 
L 89.632028 111.099032 
L 89.94896 110.916051 
L 89.94896 110.916051 
L 91.140431 110.106576 
L 92.331901 109.236601 
L 93.523372 108.397059 
L 94.714842 107.652837 
L 95.906313 106.985763 
L 97.097783 106.277661 
L 98.289254 105.36618 
L 99.480725 104.151459 
L 100.672195 102.690148 
L 101.863666 101.200802 
L 103.055136 99.958578 
L 104.246607 99.152598 
L 105.438078 98.812103 
L 106.629548 98.863262 
L 107.821019 99.211867 
L 109.012489 99.722329 
L 110.20396 100.09286 
L 111.395431 99.831926 
L 112.586901 98.47967 
L 113.778372 95.964431 
L 114.969842 92.786312 
L 116.161313 89.825988 
L 117.352784 87.894712 
L 118.544254 87.32808 
L 119.735725 87.88325 
L 120.927195 88.962982 
L 122.118666 89.976404 
L 123.310136 90.641837 
L 124.501607 91.154721 
L 125.693078 92.150104 
L 126.884548 94.31834 
L 128.076019 97.740222 
L 129.267489 101.418223 
L 130.45896 103.606218 
" clip-path="url(#p0a5cf46da1)" style="fill: none; stroke: #4892ec; stroke-width: 0.9; stroke-linejoin: miter"/>
   </g>
   <g id="patch_5">
    <path d="M 92.176299 100.219657 
L 92.493231 100.036676 
L 92.810163 99.853695 
L 93.127095 99.670714 
L 93.444027 99.487734 
L 93.760959 99.304753 
L 94.077891 99.121772 
L 94.394823 98.938791 
L 94.711755 98.755811 
L 95.028687 98.57283 
L 95.028687 98.57283 
L 96.209696 98.055292 
L 97.390705 97.671464 
L 98.571714 97.335141 
L 99.752723 96.904391 
L 100.933732 96.22695 
L 102.114741 95.195718 
L 103.29575 93.773981 
L 104.476759 92.00746 
L 105.657769 90.034295 
L 106.838778 88.077352 
L 108.019787 86.402197 
L 109.200796 85.255376 
L 110.381805 84.814083 
L 111.562814 85.123553 
L 112.743823 86.023624 
L 113.924832 87.139922 
L 115.105841 88.01763 
L 116.286851 88.357814 
L 117.46786 88.173171 
L 118.648869 87.710395 
L 119.829878 87.202452 
L 121.010887 86.67139 
L 122.191896 85.941952 
L 123.372905 84.797133 
L 124.553914 83.099663 
L 125.734924 80.816829 
L 126.915933 78.038858 
L 128.096942 75.042578 
L 129.277951 72.313948 
L 130.45896 70.416802 
" clip-path="url(#p0a5cf46da1)" style="fill: none; stroke: #4892ec; stroke-width: 0.9; stroke-linejoin: miter"/>
   </g>
   <g id="patch_6">
    <path d="M 88.647313 92.846678 
L 88.964245 92.663697 
L 89.281177 92.480716 
L 89.598109 92.297735 
L 89.915041 92.114755 
L 90.231973 91.931774 
L 90.548905 91.748793 
L 90.865837 91.565812 
L 91.182769 91.382831 
L 91.499701 91.199851 
L 91.499701 91.199851 
L 92.680285 90.378497 
L 93.860868 89.475312 
L 95.041452 88.580341 
L 96.222035 87.782856 
L 97.402619 87.14655 
L 98.583203 86.707409 
L 99.763786 86.488993 
L 100.94437 86.508386 
L 102.124953 86.731215 
L 103.305537 86.986867 
L 104.486121 86.948586 
L 105.666704 86.273013 
L 106.847288 84.839459 
L 108.027871 82.882107 
L 109.208455 80.89048 
L 110.389039 79.395626 
L 111.569622 78.834672 
L 112.750206 79.497002 
L 113.930789 81.418825 
L 115.111373 84.265109 
L 116.291957 87.377193 
L 117.47254 90.029535 
L 118.653124 91.697078 
L 119.833708 92.13133 
L 121.014291 91.297829 
L 122.194875 89.319715 
L 123.375458 86.411283 
L 124.556042 82.732817 
L 125.736626 78.263996 
L 126.917209 72.952213 
L 128.097793 67.124701 
L 129.278376 61.763079 
L 130.45896 58.235898 
" clip-path="url(#p0a5cf46da1)" style="fill: none; stroke: #4892ec; stroke-width: 0.9; stroke-linejoin: miter"/>
   </g>
   <g id="patch_7">
    <path d="M 99.502652 77.168905 
L 99.819584 76.985924 
L 100.136516 76.802943 
L 100.453448 76.619963 
L 100.77038 76.436982 
L 101.087312 76.254001 
L 101.404244 76.07102 
L 101.721176 75.888039 
L 102.038108 75.705059 
L 102.35504 75.522078 
L 102.35504 75.522078 
L 103.57695 74.679913 
L 104.798859 73.834007 
L 106.020769 73.17062 
L 107.242678 72.814791 
L 108.464588 72.745989 
L 109.686497 72.814105 
L 110.908407 72.84359 
L 112.130317 72.724304 
L 113.352226 72.409943 
L 114.574136 71.859163 
L 115.796045 71.015979 
L 117.017955 69.858586 
L 118.239864 68.428705 
L 119.461774 66.784642 
L 120.683684 64.971518 
L 121.905593 63.107983 
L 123.127503 61.507722 
L 124.349412 60.637739 
L 125.571322 60.845494 
L 126.793231 62.057822 
L 128.015141 63.739888 
L 129.23705 65.150014 
L 130.45896 65.665323 
" clip-path="url(#p0a5cf46da1)" style="fill: none; stroke: #4892ec; stroke-width: 0.9; stroke-linejoin: miter"/>
   </g>
   <g id="patch_8">
    <path d="M 90.802597 72.781444 
L 91.119529 72.598464 
L 91.436461 72.415483 
L 91.753393 72.232502 
L 92.070325 72.049521 
L 92.387257 71.86654 
L 92.704189 71.68356 
L 93.021121 71.500579 
L 93.338053 71.317598 
L 93.654985 71.134617 
L 93.654985 71.134617 
L 94.84221 70.487486 
L 96.029435 69.88017 
L 97.21666 69.309871 
L 98.403885 68.754452 
L 99.59111 68.151289 
L 100.778335 67.396718 
L 101.96556 66.402026 
L 103.152785 65.177659 
L 104.34001 63.896047 
L 105.527235 62.848587 
L 106.71446 62.29889 
L 107.901685 62.30714 
L 109.08891 62.653106 
L 110.276135 62.942794 
L 111.46336 62.851543 
L 112.650585 62.334032 
L 113.83781 61.631848 
L 115.025035 61.071942 
L 116.21226 60.823598 
L 117.399485 60.810466 
L 118.58671 60.822154 
L 119.773935 60.688889 
L 120.96116 60.338189 
L 122.148385 59.672526 
L 123.33561 58.431575 
L 124.522835 56.267255 
L 125.71006 53.051524 
L 126.897285 49.123412 
L 128.08451 45.202077 
L 129.271735 42.014179 
L 130.45896 40.001512 
" clip-path="url(#p0a5cf46da1)" style="fill: none; stroke: #4892ec; stroke-width: 0.9; stroke-linejoin: miter"/>
   </g>
   <g id="patch_9">
    <path d="M 81.993486 68.456947 
L 82.310418 68.273966 
L 82.62735 68.090985 
L 82.944282 67.908004 
L 83.261214 67.725024 
L 83.578146 67.542043 
L 83.895078 67.359062 
L 84.21201 67.176081 
L 84.528942 66.993101 
L 84.845874 66.81012 
L 84.845874 66.81012 
L 86.046218 66.121414 
L 87.246563 65.504725 
L 88.446907 65.058655 
L 89.647252 64.836947 
L 90.847596 64.772271 
L 92.04794 64.652075 
L 93.248285 64.20289 
L 94.448629 63.243923 
L 95.648973 61.812683 
L 96.849318 60.172495 
L 98.049662 58.706162 
L 99.250007 57.759078 
L 100.450351 57.503914 
L 101.650695 57.852619 
L 102.85104 58.474207 
L 104.051384 58.951141 
L 105.251728 58.998176 
L 106.452073 58.585931 
L 107.652417 57.889326 
L 108.852761 57.147042 
L 110.053106 56.554314 
L 111.25345 56.182251 
L 112.453795 55.900636 
L 113.654139 55.392093 
L 114.854483 54.340381 
L 116.054828 52.690629 
L 117.255172 50.735246 
L 118.455516 48.900085 
L 119.655861 47.422137 
L 120.856205 46.23431 
L 122.056549 45.163655 
L 123.256894 44.192191 
L 124.457238 43.457971 
L 125.657583 42.985499 
L 126.857927 42.515152 
L 128.058271 41.705858 
L 129.258616 40.533119 
L 130.45896 39.38893 
" clip-path="url(#p0a5cf46da1)" style="fill: none; stroke: #4892ec; stroke-width: 0.9; stroke-linejoin: miter"/>
   </g>
   <g id="line2d_2">
    <path d="M 73.4112 73.411932 
L 73.707141 73.24107 
L 74.003082 73.070209 
L 74.299023 72.899347 
L 74.594964 72.728486 
L 74.890905 72.557624 
L 75.186845 72.386763 
L 75.482786 72.215901 
L 75.778727 72.045039 
L 76.074668 71.874178 
L 76.370609 71.703316 
L 76.66655 71.532455 
L 76.962491 71.361593 
L 77.258432 71.190732 
L 77.554373 71.01987 
L 77.850314 70.849009 
L 78.146254 70.678147 
L 78.442195 70.507285 
L 78.738136 70.336424 
L 79.034077 70.165562 
L 79.330018 69.994701 
L 79.625959 69.823839 
L 79.9219 69.652978 
L 80.217841 69.482116 
L 80.513782 69.311255 
L 80.809723 69.140393 
L 81.105663 68.969531 
L 81.401604 68.79867 
L 81.697545 68.627808 
L 81.993486 68.456947 
" clip-path="url(#p5ee663c1c0)" style="fill: none; stroke-dasharray: 0.9,1.485; stroke-dashoffset: 0; stroke: #4892ec; stroke-width: 0.9"/>
   </g>
   <g id="matplotlib.axis_1"/>
   <g id="matplotlib.axis_2"/>
   <g id="line2d_3">
    <path d="M 73.4112 82.822372 
L 73.705969 82.652187 
L 74.000739 82.482001 
L 74.295508 82.311816 
L 74.590278 82.141631 
L 74.885047 81.971446 
L 75.179817 81.801261 
L 75.474586 81.631075 
L 75.769355 81.46089 
L 76.064125 81.290705 
L 76.358894 81.12052 
L 76.653664 80.950335 
L 76.948433 80.780149 
L 77.243203 80.609964 
L 77.537972 80.439779 
L 77.832742 80.269594 
L 78.127511 80.099408 
L 78.42228 79.929223 
L 78.71705 79.759038 
L 79.011819 79.588853 
L 79.306589 79.418668 
L 79.601358 79.248482 
L 79.896128 79.078297 
L 80.190897 78.908112 
L 80.485666 78.737927 
L 80.780436 78.567742 
L 81.075205 78.397556 
L 81.369975 78.227371 
L 81.664744 78.057186 
L 81.959514 77.887001 
L 82.254283 77.716815 
L 82.549052 77.54663 
L 82.843822 77.376445 
L 83.138591 77.20626 
L 83.433361 77.036075 
L 83.72813 76.865889 
L 84.0229 76.695704 
L 84.317669 76.525519 
L 84.612439 76.355334 
L 84.907208 76.185149 
L 85.201977 76.014963 
L 85.496747 75.844778 
L 85.791516 75.674593 
L 86.086286 75.504408 
L 86.381055 75.334223 
L 86.675825 75.164037 
L 86.970594 74.993852 
L 87.265363 74.823667 
L 87.560133 74.653482 
L 87.854902 74.483296 
L 88.149672 74.313111 
L 88.444441 74.142926 
L 88.739211 73.972741 
L 89.03398 73.802556 
L 89.328749 73.63237 
L 89.623519 73.462185 
L 89.918288 73.292 
L 90.213058 73.121815 
L 90.507827 72.95163 
L 90.802597 72.781444 
" clip-path="url(#p5ee663c1c0)" style="fill: none; stroke-dasharray: 0.9,1.485; stroke-dashoffset: 0; stroke: #4892ec; stroke-width: 0.9"/>
   </g>
   <g id="line2d_4">
    <path d="M 73.4112 92.232812 
L 73.701105 92.065435 
L 73.99101 91.898058 
L 74.280915 91.730682 
L 74.57082 91.563305 
L 74.860725 91.395928 
L 75.15063 91.228551 
L 75.440535 91.061175 
L 75.73044 90.893798 
L 76.020345 90.726421 
L 76.31025 90.559044 
L 76.600155 90.391668 
L 76.89006 90.224291 
L 77.179965 90.056914 
L 77.46987 89.889537 
L 77.759775 89.722161 
L 78.04968 89.554784 
L 78.339585 89.387407 
L 78.62949 89.22003 
L 78.919395 89.052654 
L 79.2093 88.885277 
L 79.499205 88.7179 
L 79.789111 88.550523 
L 80.079016 88.383147 
L 80.368921 88.21577 
L 80.658826 88.048393 
L 80.948731 87.881016 
L 81.238636 87.71364 
L 81.528541 87.546263 
L 81.818446 87.378886 
L 82.108351 87.211509 
L 82.398256 87.044133 
L 82.688161 86.876756 
L 82.978066 86.709379 
L 83.267971 86.542002 
L 83.557876 86.374626 
L 83.847781 86.207249 
L 84.137686 86.039872 
L 84.427591 85.872495 
L 84.717496 85.705119 
L 85.007401 85.537742 
L 85.297306 85.370365 
L 85.587211 85.202989 
L 85.877116 85.035612 
L 86.167021 84.868235 
L 86.456926 84.700858 
L 86.746831 84.533482 
L 87.036736 84.366105 
L 87.326641 84.198728 
L 87.616546 84.031351 
L 87.906451 83.863975 
L 88.196356 83.696598 
L 88.486261 83.529221 
L 88.776166 83.361844 
L 89.066071 83.194468 
L 89.355976 83.027091 
L 89.645881 82.859714 
L 89.935786 82.692337 
L 90.225691 82.524961 
L 90.515596 82.357584 
L 90.805501 82.190207 
L 91.095406 82.02283 
L 91.385311 81.855454 
L 91.675216 81.688077 
L 91.965121 81.5207 
L 92.255027 81.353323 
L 92.544932 81.185947 
L 92.834837 81.01857 
L 93.124742 80.851193 
L 93.414647 80.683816 
L 93.704552 80.51644 
L 93.994457 80.349063 
L 94.284362 80.181686 
L 94.574267 80.014309 
L 94.864172 79.846933 
L 95.154077 79.679556 
L 95.443982 79.512179 
L 95.733887 79.344803 
L 96.023792 79.177426 
L 96.313697 79.010049 
L 96.603602 78.842672 
L 96.893507 78.675296 
L 97.183412 78.507919 
L 97.473317 78.340542 
L 97.763222 78.173165 
L 98.053127 78.005789 
L 98.343032 77.838412 
L 98.632937 77.671035 
L 98.922842 77.503658 
L 99.212747 77.336282 
L 99.502652 77.168905 
" clip-path="url(#p5ee663c1c0)" style="fill: none; stroke-dasharray: 0.9,1.485; stroke-dashoffset: 0; stroke: #4892ec; stroke-width: 0.9"/>
   </g>
   <g id="line2d_5">
    <path d="M 73.4112 101.643252 
L 73.704202 101.474087 
L 73.997204 101.304922 
L 74.290207 101.135757 
L 74.583209 100.966592 
L 74.876211 100.797427 
L 75.169213 100.628262 
L 75.462215 100.459097 
L 75.755217 100.289933 
L 76.04822 100.120768 
L 76.341222 99.951603 
L 76.634224 99.782438 
L 76.927226 99.613273 
L 77.220228 99.444108 
L 77.51323 99.274943 
L 77.806233 99.105778 
L 78.099235 98.936613 
L 78.392237 98.767449 
L 78.685239 98.598284 
L 78.978241 98.429119 
L 79.271243 98.259954 
L 79.564246 98.090789 
L 79.857248 97.921624 
L 80.15025 97.752459 
L 80.443252 97.583294 
L 80.736254 97.41413 
L 81.029256 97.244965 
L 81.322259 97.0758 
L 81.615261 96.906635 
L 81.908263 96.73747 
L 82.201265 96.568305 
L 82.494267 96.39914 
L 82.78727 96.229975 
L 83.080272 96.06081 
L 83.373274 95.891646 
L 83.666276 95.722481 
L 83.959278 95.553316 
L 84.25228 95.384151 
L 84.545283 95.214986 
L 84.838285 95.045821 
L 85.131287 94.876656 
L 85.424289 94.707491 
L 85.717291 94.538327 
L 86.010293 94.369162 
L 86.303296 94.199997 
L 86.596298 94.030832 
L 86.8893 93.861667 
L 87.182302 93.692502 
L 87.475304 93.523337 
L 87.768306 93.354172 
L 88.061309 93.185007 
L 88.354311 93.015843 
L 88.647313 92.846678 
" clip-path="url(#p5ee663c1c0)" style="fill: none; stroke-dasharray: 0.9,1.485; stroke-dashoffset: 0; stroke: #4892ec; stroke-width: 0.9"/>
   </g>
   <g id="line2d_6">
    <path d="M 73.4112 111.053691 
L 73.704405 110.88441 
L 73.997609 110.715128 
L 74.290814 110.545846 
L 74.584019 110.376564 
L 74.877223 110.207283 
L 75.170428 110.038001 
L 75.463633 109.868719 
L 75.756837 109.699437 
L 76.050042 109.530155 
L 76.343247 109.360874 
L 76.636451 109.191592 
L 76.929656 109.02231 
L 77.222861 108.853028 
L 77.516065 108.683746 
L 77.80927 108.514465 
L 78.102475 108.345183 
L 78.395679 108.175901 
L 78.688884 108.006619 
L 78.982089 107.837337 
L 79.275293 107.668056 
L 79.568498 107.498774 
L 79.861703 107.329492 
L 80.154907 107.16021 
L 80.448112 106.990928 
L 80.741317 106.821647 
L 81.034521 106.652365 
L 81.327726 106.483083 
L 81.620931 106.313801 
L 81.914135 106.14452 
L 82.20734 105.975238 
L 82.500545 105.805956 
L 82.793749 105.636674 
L 83.086954 105.467392 
L 83.380159 105.298111 
L 83.673363 105.128829 
L 83.966568 104.959547 
L 84.259773 104.790265 
L 84.552977 104.620983 
L 84.846182 104.451702 
L 85.139387 104.28242 
L 85.432591 104.113138 
L 85.725796 103.943856 
L 86.019001 103.774574 
L 86.312205 103.605293 
L 86.60541 103.436011 
L 86.898615 103.266729 
L 87.191819 103.097447 
L 87.485024 102.928165 
L 87.778229 102.758884 
L 88.071433 102.589602 
L 88.364638 102.42032 
L 88.657843 102.251038 
L 88.951047 102.081757 
L 89.244252 101.912475 
L 89.537457 101.743193 
L 89.830661 101.573911 
L 90.123866 101.404629 
L 90.417071 101.235348 
L 90.710275 101.066066 
L 91.00348 100.896784 
L 91.296685 100.727502 
L 91.589889 100.55822 
L 91.883094 100.388939 
L 92.176299 100.219657 
" clip-path="url(#p5ee663c1c0)" style="fill: none; stroke-dasharray: 0.9,1.485; stroke-dashoffset: 0; stroke: #4892ec; stroke-width: 0.9"/>
   </g>
   <g id="line2d_7">
    <path d="M 73.4112 120.464131 
L 73.708708 120.292365 
L 74.006216 120.120599 
L 74.303724 119.948832 
L 74.601232 119.777066 
L 74.89874 119.6053 
L 75.196249 119.433533 
L 75.493757 119.261767 
L 75.791265 119.09 
L 76.088773 118.918234 
L 76.386281 118.746468 
L 76.683789 118.574701 
L 76.981297 118.402935 
L 77.278805 118.231169 
L 77.576313 118.059402 
L 77.873821 117.887636 
L 78.171329 117.715869 
L 78.468837 117.544103 
L 78.766346 117.372337 
L 79.063854 117.20057 
L 79.361362 117.028804 
L 79.65887 116.857038 
L 79.956378 116.685271 
L 80.253886 116.513505 
L 80.551394 116.341738 
L 80.848902 116.169972 
L 81.14641 115.998206 
L 81.443918 115.826439 
L 81.741426 115.654673 
L 82.038934 115.482907 
L 82.336443 115.31114 
L 82.633951 115.139374 
L 82.931459 114.967607 
L 83.228967 114.795841 
L 83.526475 114.624075 
L 83.823983 114.452308 
L 84.121491 114.280542 
L 84.418999 114.108776 
L 84.716507 113.937009 
L 85.014015 113.765243 
L 85.311523 113.593476 
L 85.609031 113.42171 
L 85.90654 113.249944 
L 86.204048 113.078177 
L 86.501556 112.906411 
L 86.799064 112.734645 
L 87.096572 112.562878 
" clip-path="url(#p5ee663c1c0)" style="fill: none; stroke-dasharray: 0.9,1.485; stroke-dashoffset: 0; stroke: #4892ec; stroke-width: 0.9"/>
   </g>
   <g id="line2d_8">
    <path d="M 73.4112 129.874571 
L 73.705569 129.704617 
L 73.999938 129.534663 
L 74.294308 129.364709 
L 74.588677 129.194755 
L 74.883046 129.024801 
L 75.177415 128.854846 
L 75.471784 128.684892 
L 75.766154 128.514938 
L 76.060523 128.344984 
L 76.354892 128.17503 
L 76.649261 128.005076 
L 76.94363 127.835122 
L 77.238 127.665168 
L 77.532369 127.495213 
L 77.826738 127.325259 
L 78.121107 127.155305 
L 78.415476 126.985351 
L 78.709845 126.815397 
L 79.004215 126.645443 
L 79.298584 126.475489 
L 79.592953 126.305534 
L 79.887322 126.13558 
L 80.181691 125.965626 
L 80.476061 125.795672 
L 80.77043 125.625718 
L 81.064799 125.455764 
L 81.359168 125.28581 
L 81.653537 125.115856 
L 81.947907 124.945901 
L 82.242276 124.775947 
L 82.536645 124.605993 
L 82.831014 124.436039 
L 83.125383 124.266085 
L 83.419753 124.096131 
L 83.714122 123.926177 
L 84.008491 123.756222 
L 84.30286 123.586268 
L 84.597229 123.416314 
L 84.891599 123.24636 
L 85.185968 123.076406 
L 85.480337 122.906452 
L 85.774706 122.736498 
L 86.069075 122.566544 
L 86.363444 122.396589 
L 86.657814 122.226635 
L 86.952183 122.056681 
L 87.246552 121.886727 
L 87.540921 121.716773 
L 87.83529 121.546819 
L 88.12966 121.376865 
L 88.424029 121.206911 
L 88.718398 121.036956 
L 89.012767 120.867002 
L 89.307136 120.697048 
L 89.601506 120.527094 
L 89.895875 120.35714 
L 90.190244 120.187186 
" clip-path="url(#p5ee663c1c0)" style="fill: none; stroke-dasharray: 0.9,1.485; stroke-dashoffset: 0; stroke: #4892ec; stroke-width: 0.9"/>
   </g>
  </g>
 </g>
 <defs>
  <clipPath id="p5ee663c1c0">
   <rect x="1.44" y="1.44" width="141.12" height="141.12"/>
  </clipPath>
  <clipPath id="p0a5cf46da1">
   <path d="M 73.4112 136.461879 
L 130.45896 103.52534 
L 130.45896 37.65226 
L 73.4112 70.5888 
L 73.4112 136.461879 
"/>
  </clipPath>
 </defs>
</svg>
